<svg xmlns="http://www.w3.org/2000/svg" viewBox="0 0 500 500"><g id="freepik--background-complete--inject-79"><rect y="382.4" width="500" height="0.25" style="fill:#ebebeb"></rect><rect x="416.78" y="398.49" width="33.12" height="0.25" style="fill:#ebebeb"></rect><rect x="322.53" y="401.21" width="8.69" height="0.25" style="fill:#ebebeb"></rect><rect x="396.59" y="389.21" width="19.19" height="0.25" style="fill:#ebebeb"></rect><rect x="52.46" y="390.89" width="43.19" height="0.25" style="fill:#ebebeb"></rect><rect x="104.56" y="390.89" width="6.33" height="0.25" style="fill:#ebebeb"></rect><rect x="131.47" y="395.11" width="93.68" height="0.25" style="fill:#ebebeb"></rect><path d="M237,337.8H43.91a5.71,5.71,0,0,1-5.7-5.71V60.66A5.71,5.71,0,0,1,43.91,55H237a5.71,5.71,0,0,1,5.71,5.71V332.09A5.71,5.71,0,0,1,237,337.8ZM43.91,55.2a5.46,5.46,0,0,0-5.45,5.46V332.09a5.46,5.46,0,0,0,5.45,5.46H237a5.47,5.47,0,0,0,5.46-5.46V60.66A5.47,5.47,0,0,0,237,55.2Z" style="fill:#ebebeb"></path><path d="M453.31,337.8H260.21a5.72,5.72,0,0,1-5.71-5.71V60.66A5.72,5.72,0,0,1,260.21,55h193.1A5.71,5.71,0,0,1,459,60.66V332.09A5.71,5.71,0,0,1,453.31,337.8ZM260.21,55.2a5.47,5.47,0,0,0-5.46,5.46V332.09a5.47,5.47,0,0,0,5.46,5.46h193.1a5.47,5.47,0,0,0,5.46-5.46V60.66a5.47,5.47,0,0,0-5.46-5.46Z" style="fill:#ebebeb"></path><rect x="254.74" y="158.05" width="176.29" height="223.23" style="fill:#f0f0f0"></rect><rect x="260.97" y="166.18" width="163.83" height="47.74" style="fill:#e0e0e0"></rect><rect x="260.97" y="173.91" width="9.31" height="40.01" style="fill:#ebebeb"></rect><rect x="305.97" y="173.91" width="9.31" height="40.01" style="fill:#ebebeb"></rect><rect x="360.53" y="173.41" width="9.31" height="40.01" transform="translate(-27.54 64.83) rotate(-9.78)" style="fill:#ebebeb"></rect><rect x="272.51" y="179.18" width="9.31" height="34.74" style="fill:#ebebeb"></rect><rect x="293.9" y="179.18" width="9.31" height="34.74" style="fill:#ebebeb"></rect><rect x="347.89" y="179.18" width="9.31" height="34.74" style="fill:#ebebeb"></rect><rect x="322.08" y="178.59" width="9.31" height="34.74" transform="translate(-34.72 75.53) rotate(-12.53)" style="fill:#ebebeb"></rect><rect x="285.21" y="171.92" width="4.65" height="41.99" style="fill:#ebebeb"></rect><rect x="340.56" y="171.92" width="4.65" height="41.99" style="fill:#ebebeb"></rect><rect x="260.97" y="221.48" width="163.83" height="47.74" transform="translate(685.78 490.69) rotate(180)" style="fill:#e0e0e0"></rect><rect x="415.49" y="229.2" width="9.31" height="40.01" transform="translate(840.3 498.42) rotate(180)" style="fill:#ebebeb"></rect><rect x="370.49" y="229.2" width="9.31" height="40.01" transform="translate(750.3 498.42) rotate(180)" style="fill:#ebebeb"></rect><rect x="315.94" y="228.7" width="9.31" height="40.01" transform="translate(594.29 548.25) rotate(-170.22)" style="fill:#ebebeb"></rect><rect x="403.96" y="234.48" width="9.31" height="34.74" transform="translate(817.23 503.69) rotate(180)" style="fill:#ebebeb"></rect><rect x="382.57" y="234.48" width="9.31" height="34.74" transform="translate(774.45 503.69) rotate(180)" style="fill:#ebebeb"></rect><rect x="328.58" y="234.48" width="9.31" height="34.74" transform="translate(666.47 503.69) rotate(180)" style="fill:#ebebeb"></rect><rect x="354.39" y="233.88" width="9.31" height="34.74" transform="translate(655.05 574.39) rotate(-167.47)" style="fill:#ebebeb"></rect><rect x="395.92" y="227.22" width="4.65" height="41.99" transform="translate(796.48 496.43) rotate(180)" style="fill:#ebebeb"></rect><rect x="340.56" y="227.22" width="4.65" height="41.99" transform="translate(685.78 496.43) rotate(180)" style="fill:#ebebeb"></rect><rect x="260.97" y="229.2" width="9.31" height="40.01" style="fill:#ebebeb"></rect><rect x="272.51" y="234.48" width="9.31" height="34.74" style="fill:#ebebeb"></rect><rect x="293.9" y="234.48" width="9.31" height="34.74" style="fill:#ebebeb"></rect><rect x="285.21" y="227.22" width="4.65" height="41.99" style="fill:#ebebeb"></rect><rect x="260.97" y="276.77" width="163.83" height="47.74" style="fill:#e0e0e0"></rect><rect x="355.01" y="284.5" width="9.31" height="40.01" style="fill:#ebebeb"></rect><rect x="409.56" y="284" width="9.31" height="40.01" transform="matrix(0.99, -0.17, 0.17, 0.99, -45.61, 74.77)" style="fill:#ebebeb"></rect><rect x="321.54" y="289.77" width="9.31" height="34.74" style="fill:#ebebeb"></rect><rect x="342.93" y="289.77" width="9.31" height="34.74" style="fill:#ebebeb"></rect><rect x="396.92" y="289.77" width="9.31" height="34.74" style="fill:#ebebeb"></rect><rect x="371.11" y="289.17" width="9.31" height="34.74" transform="translate(-57.54 88.8) rotate(-12.53)" style="fill:#ebebeb"></rect><rect x="334.24" y="282.51" width="4.65" height="41.99" style="fill:#ebebeb"></rect><rect x="389.59" y="282.51" width="4.65" height="41.99" style="fill:#ebebeb"></rect><rect x="302.49" y="284" width="9.31" height="40.01" transform="matrix(0.99, -0.17, 0.17, 0.99, -47.17, 56.58)" style="fill:#ebebeb"></rect><rect x="289.85" y="289.77" width="9.31" height="34.74" style="fill:#ebebeb"></rect><rect x="264.04" y="289.17" width="9.31" height="34.74" transform="translate(-60.09 65.58) rotate(-12.53)" style="fill:#ebebeb"></rect><rect x="282.52" y="282.51" width="4.65" height="41.99" style="fill:#ebebeb"></rect><rect x="52.28" y="144.83" width="130.44" height="6.7" style="fill:#e0e0e0"></rect><rect x="58.28" y="120.12" width="5.75" height="24.7" style="fill:#ebebeb"></rect><rect x="86.07" y="120.12" width="5.75" height="24.7" style="fill:#ebebeb"></rect><rect x="119.76" y="119.81" width="5.75" height="24.7" transform="matrix(0.99, -0.17, 0.17, 0.99, -20.66, 22.75)" style="fill:#ebebeb"></rect><rect x="65.4" y="123.38" width="5.75" height="21.45" style="fill:#ebebeb"></rect><rect x="78.61" y="123.38" width="5.75" height="21.45" style="fill:#ebebeb"></rect><rect x="111.95" y="123.38" width="5.75" height="21.45" style="fill:#ebebeb"></rect><rect x="96.01" y="123.01" width="5.75" height="21.45" transform="translate(-26.65 24.63) rotate(-12.53)" style="fill:#ebebeb"></rect><rect x="73.25" y="118.9" width="2.87" height="25.93" style="fill:#ebebeb"></rect><rect x="107.43" y="118.9" width="2.87" height="25.93" style="fill:#ebebeb"></rect><rect x="142.2" y="125.27" width="28" height="19.33" style="fill:#ebebeb"></rect><rect x="52.28" y="194.86" width="130.44" height="6.7" transform="translate(235 396.42) rotate(180)" style="fill:#e0e0e0"></rect><rect x="170.97" y="170.15" width="5.75" height="24.7" transform="translate(347.68 365.01) rotate(180)" style="fill:#ebebeb"></rect><rect x="143.18" y="170.15" width="5.75" height="24.7" transform="translate(292.11 365.01) rotate(180)" style="fill:#ebebeb"></rect><rect x="109.5" y="169.84" width="5.75" height="24.7" transform="translate(192.16 380.83) rotate(-170.22)" style="fill:#ebebeb"></rect><rect x="163.85" y="173.41" width="5.75" height="21.45" transform="translate(333.44 368.27) rotate(180)" style="fill:#ebebeb"></rect><rect x="150.64" y="173.41" width="5.75" height="21.45" transform="translate(307.03 368.27) rotate(180)" style="fill:#ebebeb"></rect><rect x="117.3" y="173.41" width="5.75" height="21.45" transform="translate(240.35 368.27) rotate(180)" style="fill:#ebebeb"></rect><rect x="133.24" y="173.04" width="5.75" height="21.45" transform="translate(229.13 392.68) rotate(-167.47)" style="fill:#ebebeb"></rect><rect x="158.88" y="168.93" width="2.87" height="25.93" transform="translate(320.63 363.78) rotate(180)" style="fill:#ebebeb"></rect><rect x="124.7" y="168.93" width="2.87" height="25.93" transform="translate(252.27 363.78) rotate(180)" style="fill:#ebebeb"></rect><rect x="64.8" y="175.3" width="28" height="19.33" transform="translate(157.59 369.94) rotate(180)" style="fill:#ebebeb"></rect></g><g id="freepik--Shadow--inject-79"><ellipse id="freepik--path--inject-79" cx="250" cy="416.24" rx="193.89" ry="11.32" style="fill:#f5f5f5"></ellipse></g><g id="freepik--Plant--inject-79"><path d="M85.05,394.53s4.31-9.4-.62-18.67-6.35-11.45-3.21-13.35,4.58,7.41,4.58,7.41a20.88,20.88,0,0,0,.46-13.11c-2.18-6.71-3.55-17.63-.57-18.8s.57,13.62,3.16,18.67a43.66,43.66,0,0,0,2.53-11c.36-5.39-.2-14,2.16-16.2s3.86-.68,1.55,11.21a124,124,0,0,0-2.3,21.55s5.11-15.59,8.54-16.05,3.43,4.6.49,9-8.6,12.22-9.53,16.26c0,0,5.61-11.73,10.66-8.14s-4.39,10.69-8.6,13.25-7.13,18.61-7.13,18.61Z" style="fill:#002966"></path><path d="M85.05,394.53s4.31-9.4-.62-18.67-6.35-11.45-3.21-13.35,4.58,7.41,4.58,7.41a20.88,20.88,0,0,0,.46-13.11c-2.18-6.71-3.55-17.63-.57-18.8s.57,13.62,3.16,18.67a43.66,43.66,0,0,0,2.53-11c.36-5.39-.2-14,2.16-16.2s3.86-.68,1.55,11.21a124,124,0,0,0-2.3,21.55s5.11-15.59,8.54-16.05,3.43,4.6.49,9-8.6,12.22-9.53,16.26c0,0,5.61-11.73,10.66-8.14s-4.39,10.69-8.6,13.25-7.13,18.61-7.13,18.61Z" style="fill:#fff;opacity:0.6000000000000001;isolation:isolate"></path><path d="M88.45,398.39s-4.2-9.47.84-18.66,6.49-11.36,3.37-13.31S88,373.77,88,373.77a20.92,20.92,0,0,1-.3-13.12c2.26-6.67,3.77-17.57.8-18.79s-.74,13.62-3.39,18.62a43.9,43.9,0,0,1-2.4-11c-.29-5.39.37-14-2-16.22s-3.85-.74-1.68,11.18a124.78,124.78,0,0,1,2,21.58s-4.93-15.66-8.36-16.17-3.48,4.54-.59,9,8.45,12.35,9.33,16.4c0,0-5.47-11.82-10.56-8.3s4.27,10.75,8.45,13.38S86.27,399,86.27,399Z" style="fill:#002966"></path><path d="M88.45,398.39s-4.2-9.47.84-18.66,6.49-11.36,3.37-13.31S88,373.77,88,373.77a20.92,20.92,0,0,1-.3-13.12c2.26-6.67,3.77-17.57.8-18.79s-.74,13.62-3.39,18.62a43.9,43.9,0,0,1-2.4-11c-.29-5.39.37-14-2-16.22s-3.85-.74-1.68,11.18a124.78,124.78,0,0,1,2,21.58s-4.93-15.66-8.36-16.17-3.48,4.54-.59,9,8.45,12.35,9.33,16.4c0,0-5.47-11.82-10.56-8.3s4.27,10.75,8.45,13.38S86.27,399,86.27,399Z" style="fill:#fff;opacity:0.7000000000000001;isolation:isolate"></path><polygon points="69.09 391.64 103.76 391.64 100.96 416.45 71.9 416.45 69.09 391.64" style="fill:#002966"></polygon></g><g id="freepik--Objects--inject-79"><rect x="369.99" y="378.35" width="13.92" height="38.1" style="fill:#002966"></rect><rect x="379.9" y="378.35" width="4.01" height="38.1" style="opacity:0.30000000000000004;isolation:isolate"></rect><rect x="383.13" y="397.58" width="30.3" height="18.87" style="fill:#002966"></rect><rect x="383.13" y="397.58" width="18.87" height="18.87" style="fill:#fff;opacity:0.4;isolation:isolate"></rect><rect x="282.92" y="369.01" width="25.58" height="47.44" style="fill:#002966"></rect><rect x="293.35" y="369.01" width="15.15" height="47.44" style="opacity:0.30000000000000004;isolation:isolate"></rect><rect x="322.92" y="369.01" width="25.58" height="47.44" style="fill:#002966"></rect><rect x="333.35" y="369.01" width="15.15" height="47.44" style="opacity:0.30000000000000004;isolation:isolate"></rect><polygon points="323 346.96 304 346.96 269.45 369.01 288.45 369.01 338.55 369.01 357.55 369.01 323 346.96" style="fill:#002966"></polygon><polygon points="304 346.96 269.45 369.01 288.45 369.01 338.55 369.01 304 346.96" style="fill:#fff;opacity:0.4;isolation:isolate"></polygon><path d="M363.62,406.33a10.12,10.12,0,0,1-20.16,1.22,8.24,8.24,0,0,1-.08-1.22,10.12,10.12,0,0,1,16.56-7.81h0A10.13,10.13,0,0,1,363.62,406.33Z" style="fill:#002966"></path><path d="M360.89,402.63a9.41,9.41,0,0,1-17.43,4.92,8.24,8.24,0,0,1-.08-1.22,10.12,10.12,0,0,1,16.56-7.81h0A9.39,9.39,0,0,1,360.89,402.63Z" style="fill:#fff;opacity:0.4;isolation:isolate"></path></g><g id="freepik--Interface--inject-79"><rect x="221.66" y="86.41" width="41.36" height="41.36" rx="3.5" style="fill:#263238"></rect><rect x="266.56" y="86.41" width="41.36" height="41.36" rx="3.5" style="fill:#263238"></rect><rect x="176.76" y="86.41" width="41.36" height="41.36" rx="3.5" style="fill:#263238"></rect><polygon points="191 95.69 185.16 99.79 185.16 118.51 203.88 118.51 209.73 114.41 209.73 95.69 191 95.69" style="fill:#002966"></polygon><polygon points="185.16 99.79 191 95.69 209.73 95.69 203.88 99.79 185.16 99.79" style="fill:#fff;opacity:0.6000000000000001"></polygon><polygon points="209.73 95.69 209.73 114.41 203.88 118.51 203.88 99.79 209.73 95.69" style="opacity:0.30000000000000004;isolation:isolate"></polygon><polygon points="191 95.69 185.16 99.79 185.16 118.51 203.88 118.51 209.73 114.41 209.73 95.69 191 95.69" style="fill:#fff;opacity:0.2"></polygon><path d="M448.28,284l.31-.14H171.89l-.31.14h-.36L56.62,331.93H57l-.31.13H333.36l.32-.13H334L448.64,284Zm-16.64,6.71h-24.2l15.75-6.58h24.2Zm-233.51,14h24.2l-15.74,6.58h-24.2Zm-16.68,6.58h-24.2L173,304.67h24.2Zm116.91-6.84h-24.2l15.75-6.59h24.2ZM315,297.82h24.2l-15.74,6.59H299.3Zm-66.64,6.85h24.2l-15.74,6.58H232.65Zm-16.68,6.58h-24.2l15.74-6.58h24.21Zm41.81-6.58h24.21L282,311.25h-24.2Zm-.3-.26H249l15.74-6.59H289Zm-25.14,0h-24.2l15.75-6.59h24.2Zm-25.13,0h-24.2l15.74-6.59h24.2Zm-17,7.11-15.74,6.58H166l15.75-6.58Zm.93,0H231.1l-15.75,6.58h-24.2Zm25.14,0h24.2l-15.75,6.58h-24.2Zm25.13,0h24.2l-15.74,6.58h-24.2Zm25.14,0h24.2l-15.75,6.58h-24.2Zm.62-.27,15.75-6.58h24.2l-15.74,6.58Zm40.88-6.58H348l-15.75,6.58h-24.2Zm.63-.26,15.75-6.59h24.2l-15.75,6.59Zm16.37-6.85L356.55,291h24.2L365,297.56Zm-.93,0h-24.2L331.41,291h24.2Zm-25.14,0h-24.2L306.28,291h24.2Zm-25.13,0H265.4L281.14,291h24.2Zm-25.13,0H240.26L256,291h24.2Zm-25.14,0h-24.2L230.87,291h24.21Zm-25.13,0H190L205.74,291h24.2Zm-.63.26-15.75,6.59h-24.2l15.75-6.59Zm-40.88,6.59h-24.2l15.74-6.59h24.2Zm-.63.26-15.74,6.58h-24.2l15.74-6.58Zm-16.37,6.85L140,318.1H115.74l15.75-6.58Zm.93,0h24.21l-15.75,6.58h-24.2Zm7.83,6.84L148.71,325h-24.2l15.74-6.59Zm.94,0h24.2L173.84,325h-24.2Zm25.13,0h24.2L199,325h-24.2Zm25.14,0h24.2L224.11,325h-24.2Zm25.13,0H265L249.25,325h-24.2Zm25.14,0h24.2L274.38,325h-24.2Zm25.13,0h24.2L299.52,325h-24.2Zm.63-.26,15.74-6.58h24.2l-15.74,6.58Zm40.88-6.58h24.2L341,318.1h-24.2Zm.62-.27,15.75-6.58h24.2l-15.74,6.58Zm16.37-6.84,15.75-6.59h24.2l-15.74,6.59Zm16.38-6.85L381.68,291h24.2l-15.74,6.59Zm16.37-6.85,15.74-6.58h24.21l-15.75,6.58Zm-.94,0h-24.2l15.75-6.58h24.2Zm-25.13,0H332l15.74-6.58H372Zm-25.13,0H306.9l15.75-6.58h24.2Zm-25.14,0h-24.2l15.74-6.58h24.21Zm-25.13,0H256.63l15.75-6.58h24.2Zm-25.14,0H231.5l15.75-6.58h24.2Zm-25.13,0h-24.2l15.74-6.58h24.2Zm-25.14,0h-24.2L197,284.13h24.2Zm-.62.26-15.75,6.59h-24.2L180.6,291Zm-40.88,6.59H139.72L155.47,291h24.2Zm-.63.26-15.75,6.59h-24.2l15.75-6.59Zm-16.37,6.85-15.75,6.58H107l15.75-6.58Zm-16.37,6.85-15.75,6.58H90.61l15.74-6.58Zm-16.38,6.84L98.44,325H74.24L90,318.36Zm.94,0h24.2L123.57,325H99.37Zm7.83,6.85L107.2,331.8H83l15.75-6.59Zm.93,0h24.2l-15.74,6.59h-24.2Zm25.14,0h24.2l-15.75,6.59h-24.2Zm25.13,0h24.2l-15.74,6.59H158.4Zm25.13,0h24.21l-15.75,6.59h-24.2Zm25.14,0h24.2l-15.74,6.59H208.67Zm25.13,0h24.21L258,331.8h-24.2Zm25.14,0h24.2l-15.74,6.59H258.94Zm25.13,0H324l-15.75,6.59h-24.2Zm.63-.26,15.74-6.59H340.4L324.65,325Zm40.88-6.59h24.2L349.79,325H325.58Zm.63-.26,15.74-6.58h24.2l-15.74,6.58Zm16.37-6.85,15.74-6.58h24.2l-15.74,6.58Zm16.37-6.84,15.74-6.59h24.21l-15.75,6.59Zm16.37-6.85L406.82,291H431l-15.75,6.59ZM196,284.13l-15.74,6.58H156.1l15.74-6.58ZM73.61,325.21h24.2L82.07,331.8H57.87Zm235.6,6.59L325,325.21h24.2l-15.75,6.59Z" style="fill:#002966"></path><g style="opacity:0.4;isolation:isolate"><path d="M448.28,284l.31-.14H171.89l-.31.14h-.36L56.62,331.93H57l-.31.13H333.36l.32-.13H334L448.64,284Zm-16.64,6.71h-24.2l15.75-6.58h24.2Zm-233.51,14h24.2l-15.74,6.58h-24.2Zm-16.68,6.58h-24.2L173,304.67h24.2Zm116.91-6.84h-24.2l15.75-6.59h24.2ZM315,297.82h24.2l-15.74,6.59H299.3Zm-66.64,6.85h24.2l-15.74,6.58H232.65Zm-16.68,6.58h-24.2l15.74-6.58h24.21Zm41.81-6.58h24.21L282,311.25h-24.2Zm-.3-.26H249l15.74-6.59H289Zm-25.14,0h-24.2l15.75-6.59h24.2Zm-25.13,0h-24.2l15.74-6.59h24.2Zm-17,7.11-15.74,6.58H166l15.75-6.58Zm.93,0H231.1l-15.75,6.58h-24.2Zm25.14,0h24.2l-15.75,6.58h-24.2Zm25.13,0h24.2l-15.74,6.58h-24.2Zm25.14,0h24.2l-15.75,6.58h-24.2Zm.62-.27,15.75-6.58h24.2l-15.74,6.58Zm40.88-6.58H348l-15.75,6.58h-24.2Zm.63-.26,15.75-6.59h24.2l-15.75,6.59Zm16.37-6.85L356.55,291h24.2L365,297.56Zm-.93,0h-24.2L331.41,291h24.2Zm-25.14,0h-24.2L306.28,291h24.2Zm-25.13,0H265.4L281.14,291h24.2Zm-25.13,0H240.26L256,291h24.2Zm-25.14,0h-24.2L230.87,291h24.21Zm-25.13,0H190L205.74,291h24.2Zm-.63.26-15.75,6.59h-24.2l15.75-6.59Zm-40.88,6.59h-24.2l15.74-6.59h24.2Zm-.63.26-15.74,6.58h-24.2l15.74-6.58Zm-16.37,6.85L140,318.1H115.74l15.75-6.58Zm.93,0h24.21l-15.75,6.58h-24.2Zm7.83,6.84L148.71,325h-24.2l15.74-6.59Zm.94,0h24.2L173.84,325h-24.2Zm25.13,0h24.2L199,325h-24.2Zm25.14,0h24.2L224.11,325h-24.2Zm25.13,0H265L249.25,325h-24.2Zm25.14,0h24.2L274.38,325h-24.2Zm25.13,0h24.2L299.52,325h-24.2Zm.63-.26,15.74-6.58h24.2l-15.74,6.58Zm40.88-6.58h24.2L341,318.1h-24.2Zm.62-.27,15.75-6.58h24.2l-15.74,6.58Zm16.37-6.84,15.75-6.59h24.2l-15.74,6.59Zm16.38-6.85L381.68,291h24.2l-15.74,6.59Zm16.37-6.85,15.74-6.58h24.21l-15.75,6.58Zm-.94,0h-24.2l15.75-6.58h24.2Zm-25.13,0H332l15.74-6.58H372Zm-25.13,0H306.9l15.75-6.58h24.2Zm-25.14,0h-24.2l15.74-6.58h24.21Zm-25.13,0H256.63l15.75-6.58h24.2Zm-25.14,0H231.5l15.75-6.58h24.2Zm-25.13,0h-24.2l15.74-6.58h24.2Zm-25.14,0h-24.2L197,284.13h24.2Zm-.62.26-15.75,6.59h-24.2L180.6,291Zm-40.88,6.59H139.72L155.47,291h24.2Zm-.63.26-15.75,6.59h-24.2l15.75-6.59Zm-16.37,6.85-15.75,6.58H107l15.75-6.58Zm-16.37,6.85-15.75,6.58H90.61l15.74-6.58Zm-16.38,6.84L98.44,325H74.24L90,318.36Zm.94,0h24.2L123.57,325H99.37Zm7.83,6.85L107.2,331.8H83l15.75-6.59Zm.93,0h24.2l-15.74,6.59h-24.2Zm25.14,0h24.2l-15.75,6.59h-24.2Zm25.13,0h24.2l-15.74,6.59H158.4Zm25.13,0h24.21l-15.75,6.59h-24.2Zm25.14,0h24.2l-15.74,6.59H208.67Zm25.13,0h24.21L258,331.8h-24.2Zm25.14,0h24.2l-15.74,6.59H258.94Zm25.13,0H324l-15.75,6.59h-24.2Zm.63-.26,15.74-6.59H340.4L324.65,325Zm40.88-6.59h24.2L349.79,325H325.58Zm.63-.26,15.74-6.58h24.2l-15.74,6.58Zm16.37-6.85,15.74-6.58h24.2l-15.74,6.58Zm16.37-6.84,15.74-6.59h24.21l-15.75,6.59Zm16.37-6.85L406.82,291H431l-15.75,6.59ZM196,284.13l-15.74,6.58H156.1l15.74-6.58ZM73.61,325.21h24.2L82.07,331.8H57.87Zm235.6,6.59L325,325.21h24.2l-15.75,6.59Z" style="fill:#fff"></path></g><path d="M358.51,90.41a34.33,34.33,0,1,0,34.32,34.33A34.37,34.37,0,0,0,358.51,90.41Zm32.3,33.33H363.5l25.2-10.54A32.31,32.31,0,0,1,390.81,123.74Zm-2.89-12.39-28.41,11.88V92.44A32.38,32.38,0,0,1,387.92,111.35ZM357.51,92.44v31.3H326.22A32.35,32.35,0,0,1,357.51,92.44Zm-4,33.3-25.2,10.54a32.1,32.1,0,0,1-2.11-10.54Zm-24.42,12.38,28.4-11.88V157A32.35,32.35,0,0,1,329.11,138.12ZM359.51,157V125.74h31.3A32.35,32.35,0,0,1,359.51,157Z" style="fill:#002966"></path><g style="opacity:0.6000000000000001;isolation:isolate"><path d="M358.51,90.41a34.33,34.33,0,1,0,34.32,34.33A34.37,34.37,0,0,0,358.51,90.41Zm32.3,33.33H363.5l25.2-10.54A32.31,32.31,0,0,1,390.81,123.74Zm-2.89-12.39-28.41,11.88V92.44A32.38,32.38,0,0,1,387.92,111.35ZM357.51,92.44v31.3H326.22A32.35,32.35,0,0,1,357.51,92.44Zm-4,33.3-25.2,10.54a32.1,32.1,0,0,1-2.11-10.54Zm-24.42,12.38,28.4-11.88V157A32.35,32.35,0,0,1,329.11,138.12ZM359.51,157V125.74h31.3A32.35,32.35,0,0,1,359.51,157Z" style="fill:#fff"></path></g><polygon points="358.51 86.42 356.17 92.99 360.86 92.99 358.51 86.42" style="fill:#002966"></polygon><polygon points="396.83 124.74 390.26 122.39 390.26 127.08 396.83 124.74" style="fill:#002966"></polygon><polygon points="323.5 139.6 330.47 139.16 328.61 134.84 323.5 139.6" style="fill:#002966"></polygon><path d="M327.77,138.6a1,1,0,0,1-.39-1.93l30.75-12.86a1,1,0,0,1,.77,1.85l-30.75,12.86A1,1,0,0,1,327.77,138.6Z" style="fill:#002966"></path><path d="M358.51,125.74a1,1,0,0,1-1-1V91.42a1,1,0,0,1,2,0v33.32A1,1,0,0,1,358.51,125.74Z" style="fill:#002966"></path><path d="M391.83,125.74H358.51a1,1,0,0,1,0-2h33.32a1,1,0,0,1,0,2Z" style="fill:#002966"></path><rect x="400.29" y="213.74" width="45.2" height="11.56" rx="2.8" style="fill:#002966"></rect><rect x="400.29" y="213.74" width="45.2" height="11.56" rx="2.8" style="fill:#fff;opacity:0.4;isolation:isolate"></rect><rect x="400.29" y="227.13" width="45.2" height="11.56" rx="2.8" style="fill:#002966"></rect><rect x="400.29" y="227.13" width="45.2" height="11.56" rx="2.8" style="fill:#fff;opacity:0.4;isolation:isolate"></rect><rect x="400.29" y="240.52" width="45.2" height="11.56" rx="2.8" style="fill:#002966"></rect><rect x="400.29" y="240.52" width="45.2" height="11.56" rx="2.8" style="fill:#fff;opacity:0.4;isolation:isolate"></rect><rect x="400.29" y="253.91" width="45.2" height="11.56" rx="2.8" style="fill:#002966"></rect><rect x="400.29" y="253.91" width="45.2" height="11.56" rx="2.8" style="fill:#fff;opacity:0.4;isolation:isolate"></rect><rect x="400.29" y="267.3" width="45.2" height="11.56" rx="2.8" style="fill:#002966"></rect><rect x="400.29" y="267.3" width="45.2" height="11.56" rx="2.8" style="fill:#fff;opacity:0.4;isolation:isolate"></rect><rect x="410.98" y="86.41" width="34.5" height="98.79" rx="1.56" style="fill:#002966"></rect><rect x="415.03" y="90.32" width="11.97" height="11.97" rx="1.38" style="fill:#fff;opacity:0.4;isolation:isolate"></rect><rect x="429.47" y="90.32" width="11.97" height="11.97" rx="1.38" style="fill:#fff;opacity:0.4;isolation:isolate"></rect><rect x="415.03" y="104.32" width="11.97" height="11.97" rx="1.38" style="fill:#fff;opacity:0.4;isolation:isolate"></rect><rect x="429.47" y="104.32" width="11.97" height="11.97" rx="1.38" style="fill:#fff;opacity:0.4;isolation:isolate"></rect><rect x="415.03" y="118.32" width="11.97" height="11.97" rx="1.38" style="fill:#fff;opacity:0.4;isolation:isolate"></rect><rect x="429.47" y="118.32" width="11.97" height="11.97" rx="1.38" style="fill:#fff;opacity:0.4;isolation:isolate"></rect><rect x="415.03" y="132.32" width="11.97" height="11.97" rx="1.38" style="fill:#fff;opacity:0.4;isolation:isolate"></rect><rect x="429.47" y="132.32" width="11.97" height="11.97" rx="1.38" style="fill:#fff;opacity:0.4;isolation:isolate"></rect><rect x="415.03" y="169.32" width="11.97" height="11.97" rx="1.38" style="fill:#fff;opacity:0.4;isolation:isolate"></rect><rect x="429.47" y="169.32" width="11.97" height="11.97" rx="1.38" style="fill:#fff;opacity:0.4;isolation:isolate"></rect><rect x="415.03" y="155.32" width="11.97" height="11.97" rx="1.38" style="fill:#fff;opacity:0.4;isolation:isolate"></rect><rect x="429.47" y="155.32" width="11.97" height="11.97" rx="1.38" style="fill:#fff;opacity:0.4;isolation:isolate"></rect><polygon points="235.91 95.69 230.06 99.79 230.06 118.51 248.78 118.51 254.63 114.41 254.63 95.69 235.91 95.69" style="fill:#002966;isolation:isolate"></polygon><rect x="230.06" y="99.79" width="18.72" height="18.72" style="fill:#fff;opacity:0.2"></rect><rect x="235.9" y="95.68" width="18.72" height="18.72" style="fill:#fff;opacity:0.2"></rect><polygon points="230.06 99.79 235.91 95.69 254.63 95.69 248.78 99.79 230.06 99.79" style="fill:#fff;opacity:0.6000000000000001"></polygon><polygon points="254.63 95.69 254.63 114.41 248.78 118.51 248.78 99.79 254.63 95.69" style="opacity:0.30000000000000004;isolation:isolate"></polygon><polygon points="230.06 118.51 235.91 114.41 254.63 114.41 248.78 118.51 230.06 118.51" style="opacity:0.30000000000000004;isolation:isolate"></polygon><path d="M300,95.59s0,0,0-.06,0,0,0,0a.5.5,0,0,0-.08-.12l-.06-.06-.06,0,0,0a.47.47,0,0,0-.17,0l-.07,0H280.8a.55.55,0,0,0-.3.09l-5.84,4.11s0,0,0,0l-.07.09a.58.58,0,0,0-.1.23s0,0,0,.07v18.72c0,.06,0,.1.06.15s0,.11,0,.15l0,0a.51.51,0,0,0,.39.21h18.72a.57.57,0,0,0,.31-.1l5.84-4.1s0,0,0,0l.05-.05a.53.53,0,0,0,.13-.33V95.69S300,95.63,300,95.59ZM280.28,96.7v2.56h-3.65Zm-4.79,3.62h4.79v13.81l-4.79,3.36ZM293.16,118H276.63l4.34-3h12.19Zm0-4.1H281.33V100.32h11.83Zm.36-14.62H281.33V96.21h16.53l-1.62,1.14Zm.69,18.23v-2.56h3.65Zm4.79-3.61h-4.79V100.06l1.88-1.31,2.91-2Z" style="fill:#fff;opacity:0.2"></path><path d="M300.05,95.69s0-.06,0-.1,0,0,0-.06,0,0,0,0a.5.5,0,0,0-.08-.12l-.06-.06-.06,0,0,0a.47.47,0,0,0-.17,0l-.07,0H280.8a.55.55,0,0,0-.3.09l-5.84,4.11s0,0,0,0l-.07.09a.58.58,0,0,0-.1.23s0,0,0,.07v18.72c0,.06,0,.1.06.15s0,.11,0,.15l0,0a.51.51,0,0,0,.39.21h18.72a.57.57,0,0,0,.31-.1l5.84-4.1s0,0,0,0l.05-.05a.53.53,0,0,0,.13-.33Zm-5.84,18.19V100.06l1.88-1.31,2.91-2v17.18Zm-18.72-13.56h4.79v13.81l-4.79,3.36ZM281,114.93h12.19v3H276.63Zm.36-1.05V100.32h11.83v13.56Zm16.53-17.67-1.62,1.14-2.72,1.91H281.33V96.21Zm-17.58.49v2.56h-3.65Zm13.93,18.23h3.65l-3.65,2.56Z" style="fill:#002966"></path></g><g id="freepik--3d-model--inject-79"><path d="M270.35,236.48c-13.12-17.85-29.59-28-36.79-22.74l-33,24.26c-7.2,5.29-2.4,24.05,10.72,41.9s29.6,28,36.8,22.75l33-24.26C288.28,273.1,283.48,254.34,270.35,236.48Z" style="fill:#002966"></path><ellipse cx="257.32" cy="246.07" rx="16.18" ry="40.12" transform="translate(-95.75 200.19) rotate(-36.32)" style="fill:#fff;opacity:0.4;isolation:isolate"></ellipse><path d="M231,265.44c-6.56-8.93-14.8-14-18.4-11.37l-42.43,31.18c-3.6,2.65-1.2,12,5.36,21s14.8,14,18.4,11.37l42.43-31.19C239.92,283.75,237.52,274.37,231,265.44Z" style="fill:#002966"></path><path d="M236.31,286.39l-11.41,8.39a94,94,0,0,1-23.75-32.32l11.41-8.39c3.6-2.65,11.84,2.44,18.4,11.37S239.91,283.74,236.31,286.39Z" style="opacity:0.30000000000000004;isolation:isolate"></path><ellipse cx="224.44" cy="270.23" rx="8.09" ry="20.06" transform="translate(-116.45 185.41) rotate(-36.32)" style="fill:#fff;opacity:0.30000000000000004;isolation:isolate"></ellipse><path d="M193.89,317.58c-3.6,2.64-11.84-2.45-18.4-11.37s-9-18.31-5.36-21,11.84,2.45,18.4,11.37S197.49,314.93,193.89,317.58Z" style="opacity:0.30000000000000004;isolation:isolate"></path><ellipse cx="224.32" cy="270.32" rx="16.18" ry="40.12" transform="translate(-116.52 185.36) rotate(-36.32)" style="opacity:0.30000000000000004;isolation:isolate"></ellipse><path d="M297.81,216.3c-22.66-30.83-51.1-48.41-63.54-39.27L216,190.48c-12.43,9.13-4.14,41.53,18.51,72.36S285.6,311.25,298,302.11l18.3-13.45C328.76,279.52,320.47,247.13,297.81,216.3Z" style="fill:#002966"></path><ellipse cx="257.01" cy="246.29" rx="27.94" ry="69.27" transform="translate(-95.94 200.05) rotate(-36.32)" style="opacity:0.30000000000000004;isolation:isolate"></ellipse><ellipse cx="275.3" cy="232.85" rx="27.94" ry="69.27" transform="translate(-84.43 208.27) rotate(-36.32)" style="fill:#fff;opacity:0.4;isolation:isolate"></ellipse><path d="M325,196.29c-13.12-17.85-29.6-28-36.8-22.74l-33,24.25c-7.2,5.29-2.4,24.06,10.72,41.91s29.6,28,36.8,22.74l33-24.25C343,232.91,338.16,214.14,325,196.29Z" style="fill:#002966"></path><ellipse cx="279" cy="230.13" rx="16.18" ry="40.12" transform="translate(-82.1 209.94) rotate(-36.32)" style="opacity:0.30000000000000004;isolation:isolate"></ellipse><ellipse cx="312" cy="205.87" rx="16.18" ry="40.12" transform="translate(-61.32 224.77) rotate(-36.32)" style="fill:#fff;opacity:0.4;isolation:isolate"></ellipse></g><g id="freepik--Character--inject-79"><g id="freepik--group--inject-79"><path d="M116.93,178s-13.5,23.66-14.5,29.33,11.5,41.92,11.5,41.92-2.75,9.55.25,11.15,8.24,4.85,9,2.1,0-11.82,0-11.82l-2.25-1.93s-8-37.87-8-39.19,14.51-23.65,14.51-23.65Z" style="fill:#e4897b"></path><path d="M125.21,162c-7,3.05-24.77,32.41-24.6,45s10.46,33.7,10.46,33.7l7.85-1.48S116,209.45,117,205.57s12.37-19.52,12.37-19.52Z" style="fill:#002966"></path><path d="M117,205.57c-.94,3.88,1.94,33.62,1.94,33.62l-7.85,1.48s-10.29-21.1-10.46-33.7,17.58-41.95,24.6-45l3.37,19.61.77,4.47s-6.13,8.39-9.78,14.4A23.56,23.56,0,0,0,117,205.57Z" style="fill:#fff;opacity:0.2;isolation:isolate"></path><path d="M129.35,186.05s-6.13,8.39-9.78,14.4c-.62-9.1,3.91-19.71,5.64-23.4.4-.85.65-1.34.65-1.34l2.72,5.87Z" style="opacity:0.2;isolation:isolate"></path><polygon points="166.69 409 174.81 409.85 175.22 405.15 176.32 392.36 168.22 391.5 166.99 405.63 166.69 409" style="fill:#e4897b"></polygon><polygon points="126.22 407.97 134.07 407.97 134.15 406.19 134.16 405.97 134.56 394.57 134.56 394.34 134.72 389.97 126.86 389.97 126.22 407.97" style="fill:#e4897b"></polygon><polygon points="168.22 391.5 166.99 405.63 175.22 405.15 176.32 392.36 168.22 391.5" style="opacity:0.2;isolation:isolate"></polygon><polygon points="126.27 406.97 126.28 406.97 134.15 405.97 134.16 405.97 134.56 394.97 134.56 394.97 126.67 395.6 126.28 406.63 126.27 406.97" style="opacity:0.2;isolation:isolate"></polygon><path d="M135.16,407.5h-9.55a.69.69,0,0,0-.67.54l-1.55,7a1.16,1.16,0,0,0,.9,1.37,1.07,1.07,0,0,0,.25,0c3.09-.05,5.34-.24,9.22-.24,2.39,0,9.6.25,12.9.25s3.73-3.26,2.38-3.56c-6.06-1.32-10.62-3.15-12.56-4.89A1.88,1.88,0,0,0,135.16,407.5Z" style="fill:#263238"></path><path d="M175.66,407.25h-9.55a.69.69,0,0,0-.67.54l-1.55,7a1.16,1.16,0,0,0,.9,1.37,1.07,1.07,0,0,0,.25,0c3.09-.05,5.34-.24,9.22-.24,2.39,0,9.6.25,12.9.25s3.73-3.26,2.38-3.56c-6.06-1.32-10.62-3.15-12.56-4.89A1.88,1.88,0,0,0,175.66,407.25Z" style="fill:#263238"></path><path d="M177.07,404H165.54s.94-99.25-11.53-132.77c-.88,11.08-1.87,22.58-2.84,32.16-.61,5.93-1.21,11-1.78,14.9-3.63,25-12.79,86.71-12.79,86.71H125.21s1.35-59.13,2.7-83.7C129.4,294.6,130,236,130.1,231h41.72C175.79,252,186,336,177.07,404Z" style="fill:#263238"></path><path d="M156.67,142.84c-.1.39-.21.76-.34,1.12a10.89,10.89,0,0,1-3.89,5.18A11.56,11.56,0,0,1,151,150a9.89,9.89,0,0,1-11.77-1.87c-3.94-4-3.83-8.57-4.28-16.35a10.67,10.67,0,0,1,14.71-10.63C157.31,124.28,158.36,135.84,156.67,142.84Z" style="fill:#e4897b"></path><path d="M152.44,149.14A11.56,11.56,0,0,1,151,150a9.93,9.93,0,0,1-8.52.37,11.61,11.61,0,0,1,1.39-2.63A15.31,15.31,0,0,1,152.44,149.14Z" style="opacity:0.2;isolation:isolate"></path><path d="M136.8,159.22c3.83,3.48,13.21,2.2,13.21,2.2s5.85-1.61,4.63-3.44c-3.45-.57-5.13-2.18-5.82-4.24a10,10,0,0,1-.34-3.94c.05-.73.16-1.47.28-2.2L137.17,139C138.69,144.68,140.55,155.11,136.8,159.22Z" style="fill:#e4897b"></path><path d="M147.47,117.81s5.05-2.12,8.56,1.19c3,2.79,1,7.09,2.83,10.66s-4.68,5.91-4.68,5.91-1.7,3.67-4.67,3.44c0,0-2.42,2.94-2,6s-4,5.43-9.9,5.35-3.56-3.78-3.56-3.78a24.58,24.58,0,0,1-4.11-6.65,23,23,0,0,1-1.69-9.3,12.43,12.43,0,0,1,3.43-9C135.59,117.15,145,114.91,147.47,117.81Z" style="fill:#263238"></path><path d="M148,136.32a5.08,5.08,0,0,0,2.59,3.46c1.58.67,2.62-1.56,2.4-3.9-.22-2.07-1.29-5-3-4.6S147.47,134.23,148,136.32Z" style="fill:#e4897b"></path><path d="M154,271.15c-.88,11.08-1.87,22.6-2.84,32.18-1.42-13.83-3.16-23.69-3.16-23.69s-1.63-1.34-6.11-8.49,0-20.5,0-20.5C141.76,263.05,154,271.15,154,271.15Z" style="opacity:0.2;isolation:isolate"></path><polygon points="178.36 400.72 177.8 403.97 164.18 403.97 164.18 400.97 178.36 400.72" style="fill:#002966"></polygon><polygon points="137.91 401.97 136.6 404.97 125.17 404.97 124.42 401.97 137.91 401.97" style="fill:#002966"></polygon><polygon points="129.72 237.81 129.72 243.94 173.44 240.88 173.44 235.44 129.72 237.81" style="fill:#002966"></polygon><polygon points="129.72 237.81 129.72 243.94 173.44 240.88 173.44 235.44 129.72 237.81" style="fill:#fff;opacity:0.2;isolation:isolate"></polygon><path d="M175.57,232.75a4.14,4.14,0,0,1-3.93,4.43l-41,2a2.31,2.31,0,0,1-2.44-2.3c-.26-25-8.81-70.39-3-74.91,6-4.67,35.67-7.12,35.67-7.12a100.16,100.16,0,0,1,3.63,10c.13.43.27.86.39,1.3,1.7,5.62,3.13,11.68,4.36,17.82.09.41.17.83.25,1.24A422.72,422.72,0,0,1,175.57,232.75Z" style="fill:#002966"></path><path d="M175.57,232.75a4.14,4.14,0,0,1-3.93,4.43l-41,2a2.31,2.31,0,0,1-2.44-2.3c-.26-25-8.81-70.39-3-74.91,6-4.67,35.67-7.12,35.67-7.12a100.16,100.16,0,0,1,3.63,10c.13.43.27.86.39,1.3,1.7,5.62,3.13,11.68,4.36,17.82.09.41.17.83.25,1.24A422.72,422.72,0,0,1,175.57,232.75Z" style="fill:#fff;opacity:0.4;isolation:isolate"></path><path d="M153,155.65s-4.53-3.55-13-3.37-9.33,3.37-9.33,3.37-9.34,4.66-2,12.32,21.77-11.76,21.77-11.76Z" style="fill:#002966"></path><path d="M153,155.65s-4.53-3.55-13-3.37-9.33,3.37-9.33,3.37-9.34,4.66-2,12.32,21.77-11.76,21.77-11.76Z" style="fill:#fff;opacity:0.2;isolation:isolate"></path><path d="M169.26,184a34.5,34.5,0,0,1-6.82-17.45l2.46-.37C166.6,171.78,168,177.84,169.26,184Z" style="opacity:0.2;isolation:isolate"></path><path d="M166.23,155S195.84,149,200,147.39s26.17-22.63,26.17-22.63L231,128.4S214.51,149.81,206.26,156s-37.13,15.49-37.13,15.49Z" style="fill:#e4897b"></path><path d="M226.18,124.76c2.37-2.71,11-8.56,12.27-9.06s3.11,7.15,2.73,8.15-4.61,3.12-6.74,3.37-4.43,2.44-4.43,2.44Z" style="fill:#e4897b"></path><path d="M160.88,154.85s-.4,14,6.57,20.86c0,0,25-7.33,38.43-16.42a54.84,54.84,0,0,0,18.83-23s-2.33-4.39-5.44-5c0,0-17.94,14.44-27.83,16.4S160,154.85,160,154.85" style="fill:#002966"></path><path d="M160.88,154.85s-.4,14,6.57,20.86c0,0,25-7.33,38.43-16.42a54.84,54.84,0,0,0,18.83-23s-2.33-4.39-5.44-5c0,0-17.94,14.44-27.83,16.4S160,154.85,160,154.85" style="fill:#fff;opacity:0.2;isolation:isolate"></path><polygon points="218.88 131.55 220.71 128.92 226.65 135.65 224.34 137.16 218.88 131.55" style="fill:#002966"></polygon><polygon points="110.6 239.69 118.73 237.15 119.51 239.69 110.6 242.56 110.6 239.69" style="fill:#002966"></polygon></g></g></svg>