<svg xmlns="http://www.w3.org/2000/svg" viewBox="0 0 500 500"><g id="freepik--background-complete--inject-555"><g><g><path d="M90.3144,369.0458c-.0149-.4628-1.5723-46.4283-9.049-53.6984-7.2718-7.0691-15.6181-.2629-15.9689,.0296l-.7497-.8984c.0944-.0798,9.5136-7.7684,17.5347,.0299,7.8125,7.5971,9.3409,52.5889,9.4019,54.5006l-1.169,.0367Z" style="fill:#e0e0e0;"></path><path d="M90.9561,378.0792c-.0537-.5494-5.1098-55.1817,14.8417-78.0792l.8822,.7679c-19.6206,22.5182-14.6119,76.6532-14.5594,77.1971l-1.1645,.1142Z" style="fill:#e0e0e0;"></path><path d="M90.2185,372.3003l-1.1679-.0777c.0411-.6193,3.9049-62.1092-10.73-75.5697l.7919-.8617c15.0451,13.8388,11.274,73.9563,11.106,76.5091Z" style="fill:#e0e0e0;"></path><path d="M92.1234,372.2661l-1.1701-.0092c.0143-1.6936,.4828-41.5338,11.7995-48.0188,2.5158-1.4433,4.9792-1.6833,7.3223-.7143,6.843,2.8306,10.234,15.009,10.3752,15.5255l-1.1291,.3087c-.033-.1214-3.3812-12.1431-9.6947-14.7533-1.99-.8216-4.1063-.6044-6.2919,.648-10.7386,6.1538-11.2078,46.6054-11.2112,47.0134Z" style="fill:#e0e0e0;"></path><path d="M87.7164,372.2946l-1.1679-.0662c.0177-.3144,1.7073-31.4832-6.7045-42.4653-2.0381-2.6601-4.2507-3.9287-6.5881-3.7652-5.5116,.3851-10.1336,8.4506-10.1792,8.5318l-1.0193-.5759c.2004-.3543,4.9756-8.693,11.1149-9.1228,2.7468-.1953,5.3072,1.2274,7.6007,4.2214,8.6759,11.3259,7.0182,41.9451,6.9434,43.2422Z" style="fill:#e0e0e0;"></path><path d="M89.5609,376.5342c-.2292-3.0237-5.499-74.1928,3.7733-86.7335l.9405,.6948c-9.0159,12.1945-3.6025,85.2137-3.5472,85.9497l-1.1666,.089Z" style="fill:#e0e0e0;"></path></g><path d="M112.5968,330.7366s-5.5626,2.0506-3.9088,6.8919c1.6538,4.8414,19.2434,12.8093,19.2434,12.8093,0,0,7.3667-6.7522,.6014-17.7335-6.7652-10.9813-15.7856-5.4325-15.936-1.9677Z" style="fill:#ebebeb;"></path><path d="M88.415,321.5206s5.9233-.2481,6.26,4.857c.3365,5.1049-12.8324,19.228-12.8324,19.228,0,0-9.3976-3.3974-7.3792-16.1365,2.0186-12.739,12.4795-11.0887,13.9516-7.9485Z" style="fill:#ebebeb;"></path><path d="M83.4,297.084s3.9492-.4242,3.6312-2.8295c-.3179-2.4054-15.3518-8.5966-24.2219,1.4146,0,0,5.6797,9.7561,13.8898,9.8835,8.2101,.1276,6.7009-8.4686,6.7009-8.4686Z" style="fill:#ebebeb;"></path><path d="M90.759,291.2424s-3.5759,1.7289-4.5781-.4808c-1.0026-2.2094,8.4822-15.415,21.305-11.6101,0,0,.3396,11.2838-6.5608,15.7342-6.9003,4.4507-10.1661-3.6433-10.1661-3.6433Z" style="fill:#ebebeb;"></path><path d="M72.0612,328.7906s2.7256-2.2006-.216-3.2749c-2.9413-1.0741-17.3739-.769-17.5241,13.5277,0,0,16.8093,2.7934,18.8898-2.6523,2.0807-5.4457-1.1497-7.6005-1.1497-7.6005Z" style="fill:#ebebeb;"></path><path d="M106.3384,296.7254s-2.7254-2.2006,.2159-3.2748c2.9413-1.0741,17.3738-.769,17.5242,13.5275,0,0-16.8093,2.7936-18.8899-2.6523-2.0805-5.4456,1.1498-7.6004,1.1498-7.6004Z" style="fill:#ebebeb;"></path><path d="M97.4521,308.2421s-.2398-2.6752,1.9199-1.6266c2.1597,1.0485,9.6836,9.1656,1.8844,16.8682,0,0-10.4985-7.7755-8.6061-11.8246,1.8925-4.0491,4.8018-3.417,4.8018-3.417Z" style="fill:#ebebeb;"></path><path d="M69.6246,312.0541s1.6292-2.1351-.7568-2.3997c-2.3861-.2646-13.0795,2.5897-10.5892,13.2647,0,0,13.0275-.9791,13.5858-5.4136,.5583-4.4346-2.2398-5.4514-2.2398-5.4514Z" style="fill:#ebebeb;"></path><polygon points="103.0749 392.887 76.7977 392.887 69.8084 360.6484 109.4007 360.6484 103.0749 392.887" style="fill:#f0f0f0;"></polygon><rect x="67.4245" y="360.1817" width="44.2567" height="9.2708" style="fill:#e6e6e6;"></rect></g><g><g><g><path d="M443.92039,330.1975h-180.7461c-3.2324,0-5.86229-2.6298-5.86229-5.8623V61.0618c0-3.2324,2.62989-5.8618,5.86229-5.8618h180.7461c3.2324,0,5.8623,2.6294,5.8623,5.8618V324.3352c0,3.2325-2.6299,5.8623-5.8623,5.8623ZM263.17429,55.45c-3.0947,0-5.61229,2.5176-5.61229,5.6118V324.3352c0,3.0948,2.51759,5.6123,5.61229,5.6123h180.7461c3.0947,0,5.6123-2.5175,5.6123-5.6123V61.0618c0-3.0942-2.5176-5.6118-5.6123-5.6118h-180.7461Z" style="fill:#e0e0e0;"></path><path d="M235.49269,330.1975H54.7461c-3.2324,0-5.8618-2.6298-5.8618-5.8623V61.0618c0-3.2324,2.6294-5.8618,5.8618-5.8618H235.49269c3.2324,0,5.86231,2.6294,5.86231,5.8618V324.3352c0,3.2325-2.62991,5.8623-5.86231,5.8623ZM54.7461,55.45c-3.0942,0-5.6118,2.5176-5.6118,5.6118V324.3352c0,3.0948,2.5176,5.6123,5.6118,5.6123H235.49269c3.0947,0,5.61231-2.5175,5.61231-5.6123V61.0618c0-3.0942-2.51761-5.6118-5.61231-5.6118H54.7461Z" style="fill:#e0e0e0;"></path></g><rect x="0" y="391.2669" width="500" height=".25" style="fill:#e0e0e0;"></rect></g><rect x="51.6724" y="405.5314" width="16.06" height=".25" style="fill:#e0e0e0;"></rect><rect x="170.3524" y="402.8214" width="53.53" height=".25" style="fill:#e0e0e0;"></rect><rect x="68.7324" y="414.8214" width="36.25" height=".25" style="fill:#e0e0e0;"></rect><rect x="378.35239" y="402.6914" width="43.19" height=".25" style="fill:#e0e0e0;"></rect><rect x="430.45239" y="402.6914" width="6.33" height=".25" style="fill:#e0e0e0;"></rect><rect x="316.21239" y="408.9214" width="53.89" height=".25" style="fill:#e0e0e0;"></rect></g><path d="M74.699,201.8105c-.3538-1.7067-1.0301-3.2935-1.9551-4.7027l1.6839-2.0339-3.5999-3.6002-2.0341,1.6837c-1.4093-.9245-2.9961-1.601-4.7026-1.9548l-.2469-2.6217h-5.0912l-.2471,2.6217c-1.7065,.3539-3.2934,1.0303-4.7024,1.9548l-2.034-1.6837-3.6001,3.6002,1.6837,2.034c-.9248,1.4091-1.601,2.9959-1.955,4.7026l-2.6217,.2472v5.0909l2.6217,.2471c.354,1.7066,1.0302,3.293,1.955,4.7024l-1.6837,2.034,3.6001,3.6001,2.034-1.6841c1.409,.9252,2.9959,1.6013,4.7024,1.9552l.2471,2.6216h5.0912l.2469-2.6214c1.7065-.3537,3.2933-1.0302,4.7026-1.9554l2.0341,1.6841,3.5999-3.6001-1.6839-2.0338c.925-1.4096,1.6013-2.996,1.9551-4.7026l2.6214-.2471v-5.0909l-2.6214-.2472Zm-6.5081,2.7925c0,3.8064-3.0857,6.8922-6.8923,6.8922s-6.8922-3.0858-6.8922-6.8922,3.0857-6.8923,6.8922-6.8923,6.8923,3.0858,6.8923,6.8923Z" style="fill:#ebebeb;"></path><path d="M342.27469,191.3565c-.3538-1.7067-1.0301-3.2935-1.9551-4.7027l1.6839-2.0339-3.5999-3.6002-2.0341,1.6837c-1.4093-.9245-2.9961-1.601-4.70249-1.9548l-.247-2.6217h-5.09121l-.2471,2.6217c-1.7065,.3539-3.2933,1.0303-4.7024,1.9548l-2.034-1.6837-3.6001,3.6002,1.68381,2.034c-.92491,1.4091-1.60111,2.9959-1.95511,4.7026l-2.6217,.2471v5.091l2.6217,.2471c.354,1.7065,1.0302,3.293,1.95511,4.7024l-1.68381,2.034,3.6001,3.6001,2.034-1.6841c1.4091,.9252,2.9959,1.6013,4.7024,1.9552l.2471,2.6216h5.09121l.247-2.6214c1.70639-.3537,3.29319-1.0302,4.70249-1.9554l2.0341,1.6841,3.5999-3.6001-1.6839-2.0338c.925-1.4096,1.6013-2.9961,1.9551-4.7026l2.6214-.2471v-5.091l-2.6214-.2471Zm-6.5081,2.7925c0,3.8064-3.0857,6.8922-6.8923,6.8922s-6.8922-3.0858-6.8922-6.8922,3.0857-6.8923,6.8922-6.8923,6.8923,3.0858,6.8923,6.8923Z" style="fill:#ebebeb;"></path><path d="M352.37739,302.1093c-.3537-1.7068-1.0301-3.2935-1.955-4.7027l1.6839-2.0339-3.6-3.6002-2.0341,1.6837c-1.40919-.9245-2.996-1.6011-4.7025-1.9549l-.2469-2.6216h-5.0913l-.247,2.6216c-1.70649,.3539-3.2934,1.0304-4.7024,1.9549l-2.034-1.6837-3.6002,3.6002,1.6838,2.034c-.9248,1.4091-1.6011,2.9958-1.9551,4.7026l-2.62159,.2471v5.0909l2.62159,.2472c.354,1.7065,1.0303,3.293,1.9551,4.7024l-1.6838,2.0339,3.6002,3.6002,2.034-1.6841c1.409,.9251,2.99591,1.6012,4.7024,1.9551l.247,2.6217h5.0913l.2469-2.6214c1.7065-.3537,3.29331-1.0303,4.7025-1.9554l2.0341,1.6841,3.6-3.6002-1.6839-2.0338c.9249-1.4095,1.6013-2.996,1.955-4.7025l2.6215-.2472v-5.0909l-2.6215-.2471Zm-6.508,2.7925c0,3.8063-3.0857,6.8922-6.8923,6.8922s-6.8923-3.0859-6.8923-6.8922c0-3.8065,3.0858-6.8923,6.8923-6.8923s6.8923,3.0858,6.8923,6.8923Z" style="fill:#ebebeb;"></path><path d="M233.30579,98.4859c-.332-1.6018-.96679-3.091-1.83479-4.4136l1.58029-1.9088-3.3786-3.3789-1.909,1.5802c-1.3226-.8677-2.8119-1.5026-4.4134-1.8347l-.2318-2.4604h-4.7782l-.2319,2.4604c-1.6016,.3322-3.0908,.967-4.4133,1.8347l-1.9089-1.5802-3.3788,3.3789,1.5803,1.9089c-.868,1.3225-1.50269,2.8117-1.8349,4.4135l-2.4605,.2319v4.7779l2.4605,.232c.33221,1.6016,.9669,3.0905,1.8349,4.4132l-1.5803,1.909,3.3788,3.3788,1.9089-1.5806c1.3225,.8683,2.8117,1.5028,4.4133,1.835l.2319,2.4604h4.7782l.2318-2.4602c1.6015-.332,3.0908-.9669,4.4134-1.8352l1.909,1.5806,3.3786-3.3788-1.58029-1.9088c.868-1.3229,1.50279-2.8118,1.83479-4.4134l2.4603-.232v-4.7779l-2.4603-.2319Zm-6.1079,2.6208c0,3.5723-2.896,6.4684-6.4686,6.4684-3.5724,0-6.4685-2.8961-6.4685-6.4684,0-3.5725,2.8961-6.4685,6.4685-6.4685,3.5726,0,6.4686,2.896,6.4686,6.4685Z" style="fill:#ebebeb;"></path><path d="M461.24959,224.4207c2.7526-1.601,4.6083-4.5751,4.6083-7.989,0-5.1055-4.13889-9.2443-9.2443-9.2443s-9.2444,4.1388-9.2444,9.2443c0,3.4171,1.859,6.3937,4.6159,7.9937-11.3437,2.7274-12.0427,15.2761-12.0427,15.2761l33.3423-.1927s-.6986-12.3901-12.0351-15.0881Z" style="fill:#ebebeb;"></path><g><path d="M355.037,118.2561s35.33349-36.0353,70.667,.3594c0,0-33.11321,43.578-70.667-.3594Z" style="fill:#f5f5f5;"></path><circle cx="390.37049" cy="120.1119" r="12.8029" style="fill:#ebebeb;"></circle><circle cx="390.37049" cy="120.1119" r="5.1149" style="fill:#e0e0e0;"></circle></g><g><path d="M194.4157,347.6289c-1.2855,0-2.4077-.4342-3.3666-1.3025-.9589-.8684-1.4384-2.0825-1.4384-3.6437,0-1.385,.4637-2.5501,1.3909-3.4954,.9273-.9448,2.0653-1.4179,3.4141-1.4179,1.3277,0,2.4447,.4731,3.3508,1.4179,.9063,.9453,1.3594,2.1104,1.3594,3.4954,0,1.5388-.4742,2.7483-1.4226,3.6272-.9483,.8789-2.0442,1.319-3.2876,1.319Z" style="fill:#e6e6e6;"></path><path d="M179.6099,312.7623c0-2.0339,.626-4.0946,1.8781-6.182,1.2519-2.0875,3.0786-3.8163,5.48-5.1865,2.4014-1.3698,5.203-2.0553,8.4048-2.0553,2.976,0,5.6032,.5731,7.8814,1.7181,2.2782,1.1454,4.0382,2.703,5.28,4.6726,1.2417,1.9702,1.8625,4.1107,1.8625,6.4229,0,1.8198-.354,3.4153-1.0621,4.7851-.7081,1.3702-1.54959,2.5531-2.5245,3.5486-.9749,.9956-2.7247,2.6709-5.2492,5.0259-.6978,.6637-1.2571,1.2476-1.6778,1.7502-.4208,.5032-.7338,.9635-.939,1.381-.2053,.4175-.3643,.8349-.4772,1.2524-.11289,.4175-.2822,1.1512-.508,2.1999-.39,2.227-1.6112,3.3399-3.6636,3.3399-1.0673,0-1.9653-.364-2.6939-1.0919-.7286-.7275-1.0929-1.8091-1.0929-3.2436,0-1.7984,.2668-3.3559,.8004-4.6726,.5337-1.3167,1.2418-2.4728,2.1243-3.4684,.8826-.9955,2.073-2.1784,3.5713-3.5486,1.3136-1.199,2.2628-2.1035,2.8478-2.7137,.5849-.6102,1.0775-1.2895,1.47771-2.0393,.40029-.7493,.60039-1.5624,.60039-2.4406,0-1.7128-.6106-3.158-1.8318-4.3355-1.2213-1.1771-2.7965-1.7663-4.7258-1.7663-2.2577,0-3.9202,.5941-4.9875,1.7824-1.0673,1.1882-1.9703,2.9384-2.7092,5.2507-.6979,2.4197-2.0217,3.6289-3.9715,3.6289-1.1494,0-2.1192-.4224-2.9094-1.2685-.7902-.8457-1.1853-1.761-1.1853-2.7458Z" style="fill:#e6e6e6;"></path></g><path d="M190.618,264.0329h-16.9493c-3.8234,0-6.9228-3.0994-6.9228-6.9228h0c0-3.8234,3.0994-6.9228,6.9228-6.9228h16.9493c3.8233,0,6.9228,3.0994,6.9228,6.9228h0c0,3.8234-3.0995,6.9228-6.9228,6.9228Z" style="fill:#ebebeb;"></path><circle cx="190.33722" cy="257.1101" r="7.20351" style="fill:#e0e0e0;"></circle><g><path d="M68.5604,96.1762c-.8949,0-1.676-.3022-2.3434-.9066-.6674-.6045-1.0012-1.4495-1.0012-2.5363,0-.964,.3227-1.7749,.9682-2.4329,.6454-.6576,1.4375-.9869,2.3764-.9869,.9241,0,1.7015,.3293,2.3323,.9869,.6308,.658,.9461,1.4689,.9461,2.4329,0,1.0711-.33,1.913-.9901,2.5248-.6601,.6117-1.4229,.9181-2.2883,.9181Z" style="fill:#e6e6e6;"></path><path d="M58.2548,71.9072c0-1.4157,.4357-2.85,1.3072-4.303,.8714-1.4529,2.1429-2.6563,3.8144-3.61,1.6714-.9535,3.6215-1.4306,5.8501-1.4306,2.0715,0,3.9001,.3989,5.4859,1.1959,1.5858,.7972,2.8108,1.8814,3.6751,3.2524,.8643,1.3713,1.2965,2.8612,1.2965,4.4706,0,1.2667-.2465,2.3772-.7393,3.3307-.4929,.9537-1.0786,1.777-1.7572,2.47-.6786,.6929-1.8965,1.859-3.6537,3.4983-.4857,.4619-.875,.8683-1.1679,1.2182-.2929,.3502-.5107,.6706-.6536,.9612-.1428,.2906-.2536,.5812-.3321,.8718-.0786,.2906-.1965,.8013-.3536,1.5312-.2715,1.5502-1.1215,2.3247-2.5501,2.3247-.7429,0-1.3679-.2533-1.875-.76-.5072-.5063-.7608-1.2592-.7608-2.2576,0-1.2518,.1857-2.336,.5572-3.2524,.3714-.9165,.8643-1.7212,1.4786-2.4142s1.4429-1.5163,2.4858-2.47c.9143-.8346,1.575-1.4642,1.9822-1.8889,.4071-.4247,.75-.8975,1.0286-1.4194,.2786-.5216,.4178-1.0876,.4178-1.6989,0-1.1921-.425-2.198-1.275-3.0177-.85-.8193-1.9465-1.2294-3.2894-1.2294-1.5715,0-2.7286,.4135-3.4715,1.2406s-1.3715,2.0453-1.8858,3.6548c-.4857,1.6842-1.4072,2.5259-2.7643,2.5259-.8001,0-1.4751-.294-2.0251-.883-.55-.5886-.825-1.2257-.825-1.9112Z" style="fill:#e6e6e6;"></path></g></g><g id="freepik--Shadow--inject-555"><ellipse cx="248.00922" cy="453.41708" rx="144.27672" ry="11.15543" style="fill:#f5f5f5;"></ellipse></g><g id="freepik--UI--inject-555"><g><rect x="294.57479" y="205.8182" width="145.3676" height="94.385" rx="17.8068" ry="17.8068" style="fill:#263238;"></rect><g><path d="M329.58889,256.915v-26.9287h16.5078v26.4395c0,7.4844,2.8672,10.2822,7.4834,10.2822,4.6172,0,7.4844-2.7978,7.4844-10.2822v-26.4395h16.22751v26.9287c0,14.6895-8.81251,23.1524-23.85161,23.1524-15.0381,0-23.8515-8.4629-23.8515-23.1524Z" style="fill:#fff;"></path><path d="M384.84079,229.9863h16.5069v48.9619h-16.5069v-48.9619Z" style="fill:#fff;"></path></g></g></g><g id="freepik--Video--inject-555"><g><path d="M370.33709,311.2758h29.225c4.41173,0,7.9935,3.58177,7.9935,7.9935v29.225c0,4.41173-3.58177,7.9935-7.9935,7.9935h-29.225c-4.41173,0-7.9935-3.58177-7.9935-7.9935v-29.225c0-4.41173,3.58177-7.9935,7.9935-7.9935Z" style="fill:#407BFF;"></path><polygon points="397.19819 333.8818 387.92329 339.2366 378.64849 344.5915 378.64849 333.8818 378.64849 323.1721 387.92329 328.5269 397.19819 333.8818" style="fill:#fff; opacity:.8;"></polygon></g></g><g id="freepik--Image--inject-555"><g><rect x="419.82049" y="278.3128" width="53.5176" height="46.6685" rx="3.4216" ry="3.4216" style="fill:#407BFF;"></rect><rect x="419.82049" y="278.3128" width="53.5176" height="46.6685" rx="3.4216" ry="3.4216" style="fill:#fff; opacity:.8;"></rect><path d="M419.82049,317.4732l16.0203-15.7364,13.6875,7.1333,12.85471-13.9509,10.95509,9.3274v18.9734c0,.9727-.9043,1.7613-2.0199,1.7613h-48.0761c-4.4297,0-3.6277-6.3211-3.4216-7.5081Z" style="fill:#407BFF;"></path><path d="M453.02619,291.5572c0,3.1942-2.5296,5.7835-5.6499,5.7835s-5.65-2.5893-5.65-5.7835c0-3.1944,2.52971-5.7838,5.65-5.7838s5.6499,2.5894,5.6499,5.7838Z" style="fill:#407BFF;"></path></g></g><g id="freepik--Icon--inject-555"><g><rect x="399.57609" y="143.3253" width="64.87" height="45.2956" rx="7.4544" ry="7.4544" style="fill:#407BFF;"></rect><rect x="399.57609" y="143.3253" width="64.87" height="45.2956" rx="7.4544" ry="7.4544" style="fill:#fff; opacity:.4;"></rect><g><path d="M424.958,162.0703l-10.11421,3.9028,10.11421,3.9029v2.3642l-12.76271-5.0424v-2.4498l12.76271-5.0424v2.3647Z" style="fill:#fff;"></path><path d="M435.46879,151.957h2.4785l-9.4014,26.8355h-2.4785l9.4014-26.8355Z" style="fill:#fff;"></path><path d="M451.56449,164.748v2.4498l-12.7627,5.0424v-2.3642l10.1416-3.9029-10.1416-3.9028v-2.3647l12.7627,5.0424Z" style="fill:#fff;"></path></g></g></g><g id="freepik--Text--inject-555"><g><g><polyline points="385.44589 188.1275 385.44589 194.1275 379.44589 194.1275" style="fill:none; stroke:#407BFF; stroke-miterlimit:10; stroke-width:.75px;"></polyline><line x1="372.83689" y1="194.1275" x2="362.92339" y2="194.1275" style="fill:none; stroke:#407BFF; stroke-dasharray:0 0 6.60901 6.60901; stroke-miterlimit:10; stroke-width:.75px;"></line><polyline points="359.61889 194.1275 353.61889 194.1275 353.61889 188.1275" style="fill:none; stroke:#407BFF; stroke-miterlimit:10; stroke-width:.75px;"></polyline><line x1="353.61889" y1="181.5185" x2="353.61889" y2="171.605" style="fill:none; stroke:#407BFF; stroke-dasharray:0 0 6.60901 6.60901; stroke-miterlimit:10; stroke-width:.75px;"></line><polyline points="353.61889 168.3005 353.61889 162.3005 359.61889 162.3005" style="fill:none; stroke:#407BFF; stroke-miterlimit:10; stroke-width:.75px;"></polyline><line x1="366.22789" y1="162.3005" x2="376.14139" y2="162.3005" style="fill:none; stroke:#407BFF; stroke-dasharray:0 0 6.60901 6.60901; stroke-miterlimit:10; stroke-width:.75px;"></line><polyline points="379.44589 162.3005 385.44589 162.3005 385.44589 168.3005" style="fill:none; stroke:#407BFF; stroke-miterlimit:10; stroke-width:.75px;"></polyline><line x1="385.44589" y1="174.9095" x2="385.44589" y2="184.823" style="fill:none; stroke:#407BFF; stroke-dasharray:0 0 6.60901 6.60901; stroke-miterlimit:10; stroke-width:.75px;"></line></g><path d="M360.76659,186.6641c.627-.042,1.1309-.3257,1.5117-.8511,.2461-.3301,.59671-1.0581,1.05471-2.1846l5.77929-14.2397h.7236l5.8057,13.6679c.65141,1.5328,1.1387,2.5215,1.4609,2.9659,.3213,.4448,.7784,.6587,1.3711,.6416v.6606h-8.4209v-.6606c.8467-.0337,1.4034-.1055,1.67-.2159,.2666-.1098,.40031-.3896,.40031-.8383,0-.2032-.06831-.5122-.20311-.9273-.08489-.2456-.2002-.542-.3437-.8891l-.6621-1.5752h-5.8399c-.3818,1.0332-.6279,1.7065-.7383,2.0195-.2285,.6694-.3427,1.1562-.3427,1.4609,0,.3726,.25,.6436,.75,.813,.2959,.0933,.7402,.1441,1.333,.1524v.6606h-5.3096v-.6606Zm9.7656-5.4746l-2.5019-6.021h-.2188l-2.3476,6.021h5.0683Z" style="fill:#407BFF;"></path><rect x="350.78339" y="160.036" width="4.1807" height="4.1806" style="fill:#407BFF;"></rect><rect x="383.10809" y="160.036" width="4.1806" height="4.1806" style="fill:#407BFF;"></rect><rect x="350.78339" y="192.0372" width="4.1807" height="4.1807" style="fill:#407BFF;"></rect><rect x="383.10809" y="192.0372" width="4.1806" height="4.1807" style="fill:#407BFF;"></rect></g></g><g id="freepik--Gears--inject-555"><g><path d="M78.50485,101.96075c-.53463-2.57906-1.55663-4.97694-2.95439-7.10646l2.54464-3.07346-5.44004-5.4404-3.07383,2.54427c-2.12959-1.39704-4.5274-2.41941-7.10617-2.95403l-.37316-3.96168h-7.69355l-.37338,3.96168c-2.57877,.53477-4.97672,1.55699-7.10602,2.95403l-3.07368-2.54427-5.44026,5.4404,2.54442,3.07375c-1.39762,2.12923-2.41948,4.52711-2.95439,7.10617l-3.96168,.37352v7.69305l3.96168,.37352c.53492,2.57877,1.55677,4.97622,2.95439,7.10595l-2.54442,3.07361,5.44026,5.44033,3.07368-2.54493c2.1293,1.39806,4.52725,2.41977,7.10602,2.95454l.37338,3.96168h7.69355l.37316-3.96132c2.57877-.53455,4.97658-1.55684,7.10617-2.9549l3.07383,2.54493,5.44004-5.44033-2.54464-3.07332c1.39777-2.13002,2.41977-4.52747,2.95439-7.10624l3.96139-.37352v-7.69305l-3.96139-.37352Zm-9.8346,4.2199c0,5.75196-4.66299,10.4151-10.41524,10.4151s-10.41517-4.66314-10.41517-10.4151,4.66299-10.41524,10.41517-10.41524,10.41524,4.66307,10.41524,10.41524Z" style="fill:#407BFF;"></path><path d="M78.50485,101.96075c-.53463-2.57906-1.55663-4.97694-2.95439-7.10646l2.54464-3.07346-5.44004-5.4404-3.07383,2.54427c-2.12959-1.39704-4.5274-2.41941-7.10617-2.95403l-.37316-3.96168h-7.69355l-.37338,3.96168c-2.57877,.53477-4.97672,1.55699-7.10602,2.95403l-3.07368-2.54427-5.44026,5.4404,2.54442,3.07375c-1.39762,2.12923-2.41948,4.52711-2.95439,7.10617l-3.96168,.37352v7.69305l3.96168,.37352c.53492,2.57877,1.55677,4.97622,2.95439,7.10595l-2.54442,3.07361,5.44026,5.44033,3.07368-2.54493c2.1293,1.39806,4.52725,2.41977,7.10602,2.95454l.37338,3.96168h7.69355l.37316-3.96132c2.57877-.53455,4.97658-1.55684,7.10617-2.9549l3.07383,2.54493,5.44004-5.44033-2.54464-3.07332c1.39777-2.13002,2.41977-4.52747,2.95439-7.10624l3.96139-.37352v-7.69305l-3.96139-.37352Zm-9.8346,4.2199c0,5.75196-4.66299,10.4151-10.41524,10.4151s-10.41517-4.66314-10.41517-10.4151,4.66299-10.41524,10.41517-10.41524,10.41524,4.66307,10.41524,10.41524Z" style="fill:#407BFF; opacity:.6;"></path></g><g><path d="M104.14543,241.0164c-.36306-1.75166-1.05718-3.38018-2.00647-4.82646l1.72818-2.08735-3.69458-3.69487-2.08764,1.72796c-1.44629-.94885-3.0748-1.64312-4.82617-2.00625l-.25349-2.69061h-5.22512l-.25356,2.69061c-1.75137,.3632-3.37996,1.0574-4.8261,2.00625l-2.08749-1.72796-3.6948,3.69487,1.7281,2.08757c-.94922,1.44607-1.64319,3.07458-2.00654,4.82624l-2.69053,.25363v5.22475l2.69053,.25371c.36335,1.75137,1.05732,3.37959,2.00654,4.82602l-1.7281,2.08749,3.6948,3.6948,2.08749-1.7284c1.44614,.94951,3.07473,1.64341,4.8261,2.00662l.25356,2.69053h5.22512l.25349-2.69031c1.75137-.36298,3.37988-1.05732,4.82617-2.00684l2.08764,1.7284,3.69458-3.6948-1.72818-2.08727c.94929-1.44666,1.64341-3.07488,2.00647-4.82624l2.69039-.25371v-5.22475l-2.69039-.25363Zm-6.67918,2.86594c0,3.90645-3.16691,7.07343-7.07358,7.07343s-7.07351-3.16698-7.07351-7.07343c0-3.90667,3.16691-7.07358,7.07351-7.07358s7.07358,3.16691,7.07358,7.07358Z" style="fill:#407BFF;"></path><path d="M104.14543,241.0164c-.36306-1.75166-1.05718-3.38018-2.00647-4.82646l1.72818-2.08735-3.69458-3.69487-2.08764,1.72796c-1.44629-.94885-3.0748-1.64312-4.82617-2.00625l-.25349-2.69061h-5.22512l-.25356,2.69061c-1.75137,.3632-3.37996,1.0574-4.8261,2.00625l-2.08749-1.72796-3.6948,3.69487,1.7281,2.08757c-.94922,1.44607-1.64319,3.07458-2.00654,4.82624l-2.69053,.25363v5.22475l2.69053,.25371c.36335,1.75137,1.05732,3.37959,2.00654,4.82602l-1.7281,2.08749,3.6948,3.6948,2.08749-1.7284c1.44614,.94951,3.07473,1.64341,4.8261,2.00662l.25356,2.69053h5.22512l.25349-2.69031c1.75137-.36298,3.37988-1.05732,4.82617-2.00684l2.08764,1.7284,3.69458-3.6948-1.72818-2.08727c.94929-1.44666,1.64341-3.07488,2.00647-4.82624l2.69039-.25371v-5.22475l-2.69039-.25363Zm-6.67918,2.86594c0,3.90645-3.16691,7.07343-7.07358,7.07343s-7.07351-3.16698-7.07351-7.07343c0-3.90667,3.16691-7.07358,7.07351-7.07358s7.07358,3.16691,7.07358,7.07358Z" style="fill:#407BFF; opacity:.6;"></path></g></g><g id="freepik--Pencil--inject-555"><g><g><path d="M138.9659,288.2465c-1.7411-7.4442,2.0424-14.6939,8.4507-16.1927,6.4084-1.4989,13.0148,3.3208,14.7559,10.765,1.7411,7.4441-2.0424,14.6939-8.4507,16.1927-6.4084,1.4988-13.0148-3.3208-14.7559-10.765Z" style="fill:#407BFF;"></path></g><polygon points="91.2238 84.2385 96.4678 57.88 114.4135 78.8147 161.9078 281.8782 138.7181 287.302 91.2238 84.2385" style="fill:#407BFF;"></polygon><path d="M101.2139,63.4011c-1.6781,2.0616-3.718,2.556-6.1365,1.4525l-3.8536,19.3849s3.2218,4.7555,5.8105-.9891c0,0,4.0564,4.1258,6.6126-1.5466,0,0,3.7329,3.1678,5.7683-1.3492,0,0,3.192,2.4697,4.9983-1.5389l-13.1996-15.4136Z" style="fill:#b97964;"></path><path d="M103.7325,81.7104l48.7982,202.6538,5.3986-1.2626c.8001-.4523-48.4284-202.7403-48.4284-202.7403-2.0355,4.5169-5.7684,1.3491-5.7684,1.3491Z" style="fill:#fff; opacity:.3;"></path><path d="M97.0686,83.3152c-1.4274,3.1677-3.0463,3.1413-4.2124,2.4815l48.4571,201.2374,5.3986-1.2627c.7618-.4306-43.8299-183.8356-48.1001-201.3908-.9155-.4293-1.5432-1.0654-1.5432-1.0654Z" style="fill:#fff; opacity:.3;"></path><rect x="137.91451" y="283.08801" width="25.22503" height="4.07057" transform="translate(362.03288 528.47274) rotate(166.83585)" style="fill:#263238;"></rect></g></g><g id="freepik--Frame--inject-555"><g><rect x="132.362" y="73.7525" width="68.76779" height="68.7678" style="fill:none; stroke:#263238; stroke-miterlimit:10; stroke-width:.5px;"></rect><rect x="135.6674" y="77.0009" width="61.9771" height="61.977" style="fill:none; stroke:#263238; stroke-miterlimit:10; stroke-width:.5px;"></rect><line x1="135.6674" y1="138.7204" x2="197.6445" y2="76.7433" style="fill:none; stroke:#263238; stroke-miterlimit:10; stroke-width:.5px;"></line><line x1="197.6445" y1="138.7204" x2="135.6674" y2="76.7433" style="fill:none; stroke:#263238; stroke-miterlimit:10; stroke-width:.5px;"></line></g></g><g id="freepik--UX--inject-555"><g><rect x="67.9683" y="126.8365" width="145.36759" height="94.385" rx="17.80689" ry="17.80689" style="fill:#407BFF;"></rect><g><path d="M89.6846,177.9336v-26.9292h16.5073v26.4399c0,7.4839,2.8677,10.2818,7.4839,10.2818,4.6167,0,7.4844-2.7979,7.4844-10.2818v-26.4399h16.2275v26.9292c0,14.689-8.813,23.1523-23.8516,23.1523s-23.8515-8.4633-23.8515-23.1523Z" style="fill:#fff;"></path><path d="M175.2231,199.9668l-8.4633-13.0801-8.2539,13.0801h-18.8155l17.6963-24.6909-17.0669-24.2715h18.5357l8.3237,12.3105,8.1138-12.3105h17.7666l-16.9971,23.6421,18.0459,25.3203h-18.8853Z" style="fill:#fff;"></path></g></g></g><g id="freepik--Button--inject-555"><rect x="164.646" y="230.9466" width="33.90159" height="13.8457" rx="6.9228" ry="6.9228" style="fill:#407BFF;"></rect><path d="M179.0531,237.8695c0,3.9784-3.2251,7.2035-7.2035,7.2035s-7.2036-3.2251-7.2036-7.2035,3.2252-7.2036,7.2036-7.2036,7.2035,3.2251,7.2035,7.2036Z" style="fill:#263238;"></path></g><g id="freepik--Character--inject-555"><g><g><path d="M288.626,148.1411c-3.11411-1.7121-5.78011-4.4801-6.41-7.8451-.49641-2.6524,.14529-5.8085-1.87381-7.7004-1.3998-1.3117-3.6186-1.4803-5.1741-2.623-2.7684-2.0337-1.441-10.0917-1.7375-13.4041-.4083-4.5633-3.6824-4.8436-7.3502-7.8164l-18.0335-8.2289c-7.6346,.8282-14.5447,11.9967-15.0171,19.7905-.2635,4.3465,.68021,8.8616-.8359,12.9701-.9691,2.6266-2.8697,4.8477-4.0874,7.3791-1.97849,4.113-2.0506,8.87-1.0964,13.3003,.9543,4.4303,2.8733,8.6119,4.7795,12.7557,.7249,1.576,1.526,3.2401,3.0399,4.1837,1.1897,.7416,2.6582,.9309,4.0737,1.0699,12.8645,1.2629,26.0087-.1088,38.2776-3.9945,4.839-1.5326,10.0395-3.9274,11.7418-8.4948-3.0064-2.694-5.4099-5.9922-7.00559-9.6137,2.19129,.761,4.00959,2.2325,5.925,3.498,1.91539,1.2656,4.11529,2.3801,6.44469,2.2533s4.6808-1.9477,4.5089-4.1579c-3.4995-.7945-7.0554-1.6099-10.16959-3.3218Z" style="fill:#263238;"></path><path d="M251.791,92.1112c-1.11621-.9337-2.56281-1.3979-4.00751-1.574-1.6991-.2073-3.482-.0295-5.0004,.7609-1.5184,.7905-2.7354,2.2472-2.9952,3.9392-.2774,1.8056,.5883,3.6946,2.0312,4.8149,1.4428,1.1203,3.38691,1.5014,5.1887,1.2l2.2751-.6711c.955-.515,1.903-1.0702,2.6829-1.8246,.78-.7542,1.3866-1.7326,1.5119-2.8103,.1681-1.4457-.5704-2.9012-1.68669-3.835Z" style="fill:#263238;"></path><g><path d="M244.52769,127.3307l10.2609,10.3558,2.8792,1.7284c-.6441,1.527-1.1954,3.0992-1.4312,4.6219-.4495,2.6864,.5182,3.6185,2.9289,5.7021,1.0239,.8849-.8414,25.8467-1.5516,28.5822l-16.97089-28.5311c5.40489-3.7535,5.05839-16.1098,3.88469-22.4593Z" style="fill:#eec1bb;"></path><path d="M256.15319,144.6269c-2.82219-1.6755-5.9186-4.5811-5.54719-7.9009,.16529-1.3981,.46659-2.7227,.80149-3.5718l5.7321,7.5891c-.4704,1.2233-.6423,2.0319-.9864,3.8836Z" style="opacity:.2;"></path><path d="M242.54009,115.6555c.9657,10.5431,1.152,15.0141,6.5926,20.5422,8.18331,8.3155,20.7736,5.5183,22.9409-4.932,1.951-9.4059,.0438-25.0669-10.3064-29.4977-10.1973-4.3653-20.1927,3.3445-19.2271,13.8875Z" style="fill:#eec1bb;"></path><path d="M256.19569,119.0879c.0518,1.1156,.6559,2.0313,1.3494,2.0456,.6931,.0144,1.2131-.8782,1.1612-1.9935-.0517-1.1156-.6559-2.0316-1.3491-2.0457-.6933-.0145-1.21319,.8779-1.1615,1.9936Z" style="fill:#263238;"></path><path d="M266.59289,119.0563c.0525,1.0809,.6554,1.969,1.3466,1.9833,.6913,.0144,1.209-.8501,1.1567-1.9312-.0526-1.0808-.6555-1.9689-1.3466-1.9831-.6913-.0148-1.2091,.8501-1.1567,1.931Z" style="fill:#263238;"></path><path d="M253.99579,115.2024c.1344,.015,.2705-.024,.3748-.1201,1.6242-1.504,3.4531-.976,3.4741-.9697,.2711,.0789,.5454-.0745,.6074-.351,.0614-.2762-.1106-.5665-.3852-.6496-.0956-.0282-2.3908-.6935-4.4063,1.1737-.2007,.1861-.2048,.5156-.009,.7357,.0946,.1056,.21841,.1671,.3442,.181Z" style="fill:#263238;"></path><path d="M270.08959,113.7656c.1063-.0357,.1947-.1148,.2413-.2302,.096-.2391-.0214-.5421-.2616-.6771-2.4096-1.3548-4.196-.3249-4.27129-.2795-.21211,.1262-.26321,.4255-.11381,.6691,.1484,.2433,.4407,.3383,.6527,.2137,.0694-.0415,1.468-.8167,3.384,.2609,.124,.0695,.2565,.081,.3687,.0431Z" style="fill:#263238;"></path><path d="M263.76459,118.5424s1.6493,3.9464,3.51,6.4065c.32541,.43,.124,1.0575-.3818,1.2437-1.3021,.4792-2.8256,.0455-2.8256,.0455l-.3026-7.6957Z" style="fill:#f4897d;"></path><path d="M256.96009,117.1402l2.4197-.5717s-1.3231,1.8044-2.4197,.5717Z" style="fill:#263238;"></path><path d="M267.50049,117.1501l2.4198-.5717s-1.3231,1.8044-2.4198,.5717Z" style="fill:#263238;"></path><path d="M246.19939,119.2976s8.84061-1.0059,5.1581-14.8157c0,0,10.4097-2.7139,18.7118,8.3764,1.3224,1.7662,2.1112,4.7128,3.2951,7.2536,0,0,1.9872-20.0601-15.81339-21.7045-17.77241-1.6421-21.26551,23.344-12.59481,31.7519,0,0-2.1245-5.7393,1.2432-10.8617Z" style="fill:#263238;"></path><g><path d="M263.76459,128.9452c-.804,1.3234-1.7944,3.8724-1.7944,3.8724-.2224-.0449-.4448-.0896-.6637-.1472-2.9978-.692-4.1282-2.1127-4.4719-3.4777-.1854-.7475-.1269-1.4858-.0098-2.0715,.129-.6789,.3607-1.1387,.3607-1.1387,1.33951,1.4209,4.0777,2.305,5.5613,2.7091,.6193,.1763,1.0178,.2536,1.0178,.2536Z" style="fill:#263238;"></path><path d="M263.11489,128.6976l-.5876,1.1938c-2.9862-.6979-4.9821-1.634-5.67929-2.8557,.13649-.7184,.38179-1.205,.38179-1.205,1.4175,1.5037,4.315,2.4393,5.8851,2.8669Z" style="fill:#fff;"></path><path d="M261.59069,132.9081c-3.1724-.7322-4.3686-2.2357-4.7323-3.6802,1.0701,.296,2.324,.785,3.339,1.5883,.7785,.6106,1.179,1.3687,1.3933,2.0919Z" style="fill:#dc5753;"></path></g><g><path d="M239.35039,124.2482c1.2451,2.1622,3.26861,3.5201,5.124,3.9854,2.7907,.6998,4.2319-3.787,3.2794-6.583-.8577-2.5168-3.5999-4.1829-6.31579-3.634-2.67581,.5405-3.51161,3.7594-2.08761,6.2316Z" style="fill:#eec1bb;"></path><path d="M245.24769,123.6865c-.06669-.9987-.5429-1.9636-1.2953-2.6237-.7522-.6601-1.7708-1.0071-2.7696-.9435" style="fill:none; opacity:.2; stroke:#000; stroke-linecap:round; stroke-linejoin:round; stroke-width:.75px;"></path></g></g></g><path d="M271.73239,150.727s6.6438-.729,12.2924,6.7216,15.7229,20.0957,15.7229,20.0957l13.67231-20.0957,19.18919-2.0282s.7196,2.3684-3.1183,4.0047c-3.8378,1.6363-11.0337,3.5111-11.0337,3.5111,0,0-9.2524,28.588-16.2596,30.9866-7.0073,2.3987-22.9795-15.0817-22.9795-15.0817l-7.4857-28.1141Z" style="fill:#eec1bb;"></path><g><path d="M292.99839,273.8541s14.9971,55.7061,11.5974,73.6508-69.1461,84.3573-69.1461,84.3573l-8.6683-5.3041s20.2189-40.1588,31.60461-53.8217c11.38569-13.6628,16.35419-17.1258,18.87959-27.6006,2.52541-10.4748-13.3271-59.4292-13.3271-59.4292l29.0599-11.8525Z" style="fill:#eec1bb;"></path><path d="M223.06709,287.7127s7.927,56.3047,9.7041,66.3512,2.9113,23.6046,5.3966,50.6974c2.4854,27.0927,9.0267,44.6451,9.0267,44.6451l9.94151,.3314,2.32979-170.1753-36.3987,8.1502Z" style="fill:#eec1bb;"></path><g><path d="M238.01349,430.9494l-2.179-3.4685c-.493-.7848-1.3462-1.2615-2.2707-1.3274-3.9881-.2842-3.9-2.4361-2.6987-6.225-.7076-1.4844-2.5288-.8596-3.0262-.7044l-11.061,3.3324c-.9292,.2696-1.4638,1.2412-1.1942,2.1704,.048,.1652,.1199,.3226,.2137,.4668,2.6461,4.2122,3.8981,6.2051,7.1915,11.4476l10.0724,16.0332c2.74571,4.3707,7.7195,2.5093,6.996,.453-3.297-9.2198-4.5159-16.4492-3.7328-20.4311,.1209-.723,.7287-.4402,1.689-1.747Z" style="fill:#407BFF;"></path><path d="M238.01349,430.9494l-2.179-3.4685c-.493-.7848-1.3462-1.2615-2.2707-1.3274-3.9881-.2842-3.9-2.4361-2.6987-6.225-.7076-1.4844-2.5288-.8596-3.0262-.7044l-11.061,3.3324c-.9292,.2696-1.4638,1.2412-1.1942,2.1704,.048,.1652,.1199,.3226,.2137,.4668,2.6461,4.2122,3.8981,6.2051,7.1915,11.4476l10.0724,16.0332c2.74571,4.3707,7.7195,2.5093,6.996,.453-3.297-9.2198-4.5159-16.4492-3.7328-20.4311,.1209-.723,.7287-.4402,1.689-1.747Z" style="opacity:.2;"></path><path d="M242.38609,437.2757c.5113-.1431,.9241-.5205,1.1125-1.017,.1318-.255,.1063-.5631-.0659-.793-.8933-1.2948-6.5253-.8063-7.1618-.7402-.0678-.0004-.1324,.0296-.17589,.0817-.08041,.0964-.06741,.2398,.02889,.3202,1.0796,.7121,2.2307,1.3098,3.4343,1.783,.8795,.4201,1.8705,.5481,2.8279,.3653Zm.61191-1.556c.07589,.0966,.08379,.2299,.02,.3349-.15181,.3524-.44771,.6228-.81261,.7421-1.391,.4166-3.8996-.8998-5.2222-1.6825,2.3182-.1486,5.5192-.1025,6.01481,.6055Z" style="fill:#263238;"></path><path d="M236.26889,435.2374c1.6646-.0745,5.5594-1.3409,5.8554-2.6564,.0714-.2728-.0021-.6558-.6231-.9825-2.5268-1.2661-5.3889,3.0548-5.4624,3.2558-.05579,.0715-.0636,.1694-.0199,.2489,.0438,.0326,.0962,.0518,.1507,.0552l.0993,.079Zm5.0022-3.2819c.4713,.2294,.407,.4052,.384,.468-.14209,.8166-3.0609,1.9843-4.9339,2.239,.73081-.9857,2.7083-3.3948,4.3785-2.7838l.1714,.0768Z" style="fill:#263238;"></path><path d="M236.84949,435.0389c-.9136-1.0923-2.3236-1.7522-3.7477-1.7537" style="fill:none; stroke:#000; stroke-linecap:round; stroke-linejoin:round; stroke-width:.5px;"></path><path d="M236.58119,438.2139c-.9137-1.0923-2.3237-1.7521-3.7478-1.7536" style="fill:none; stroke:#000; stroke-linecap:round; stroke-linejoin:round; stroke-width:.5px;"></path><path d="M236.90169,441.753c-.9136-1.0923-2.3238-1.7521-3.7478-1.7537" style="fill:none; stroke:#000; stroke-linecap:round; stroke-linejoin:round; stroke-width:.5px;"></path></g><path d="M224.24219,296.0237l35.018-1.4417,.03181-2.3247-35.677-.6634s.50919,3.5974,.62719,4.4298Z" style="opacity:.2;"></path><polygon points="266.51429 293.9742 295.71619 284.5893 295.19249 282.4484 265.84179 291.7731 266.51429 293.9742" style="opacity:.2;"></polygon><g><path d="M258.61249,443.2901h-3.876c-.877,0-1.6883,.4436-2.20649,1.1512-2.23511,3.0524-3.91491,1.8986-6.346-.9711-1.54551-.1801-1.96161,1.5935-2.08771,2.0702l-2.8975,10.5398c-.2517,.8802,.2577,1.7977,1.1379,2.0493,.1566,.0447,.3188,.0663,.4816,.0638h30.7083c4.8841,0,5.8962-4.9221,3.88441-5.3774-9.04671-1.9992-15.45271-4.6614-18.249-7.2932-.51841-.4607,.01409-.8055-.54951-2.2326Z" style="fill:#407BFF;"></path><path d="M265.88219,442.9709c.1427-.4817,.0481-1.0024-.2549-1.4032-.1379-.234-.3976-.3687-.6685-.3464-1.4871,.064-3.9306,4.8225-4.198,5.3657-.0344,.0542-.0429,.121-.0231,.182,.0368,.113,.15831,.1748,.2712,.1381,1.114-.5066,2.1722-1.1281,3.1572-1.8542,.7793-.4933,1.3806-1.2228,1.7161-2.082Zm-.9387-1.2735c.11551-.0121,.2264,.0486,.2784,.1526,.2059,.299,.2736,.6722,.1856,1.0246-.3664,1.3243-2.6839,2.6716-3.9767,3.3374,1.0478-1.9323,2.696-4.4738,3.5127-4.5146Z" style="fill:#263238;"></path><path d="M261.17,446.8463c.77819-1.3713,1.72389-5.1293,.81889-6.0287-.1827-.1945-.5266-.3284-1.10089,.0047-2.28631,1.3873-.26481,5.8555-.14081,6.0155,.0292,.0807,.1037,.1362,.1894,.1413,.0482-.0187,.09-.0511,.1201-.093l.11331-.0398Zm-.11181-5.6599c.4211-.2621,.5296-.1221,.5683-.0721,.5828,.5249,.0493,3.4513-.68949,5.0802-.42191-1.0817-1.35681-3.8788-.02661-4.9094l.1478-.0987Z" style="fill:#263238;"></path><path d="M261.30309,446.2812c-1.3349,.1822-2.5734,.9798-3.2915,2.12" style="fill:none; stroke:#263238; stroke-linecap:round; stroke-linejoin:round; stroke-width:.5px;"></path><path d="M263.712,448.0943c-1.33511,.1822-2.57341,.9799-3.29141,2.1202" style="fill:none; stroke:#263238; stroke-linecap:round; stroke-linejoin:round; stroke-width:.5px;"></path><path d="M266.709,449.6189c-1.335,.1822-2.57351,.9799-3.29151,2.1201" style="fill:none; stroke:#263238; stroke-linecap:round; stroke-linejoin:round; stroke-width:.5px;"></path></g></g><g><g><path d="M296.61309,272.3299l-12.8066-32.389-8.533-18.6438,.17151-8.3791-43.37961-.4366c-.3531,.8284-.706,1.6568-1.0456,2.4989-1.207,2.9952-.5613,3.2191-1.5156,6.2807,0,0-3.6769,10.3619-5.627,25.1375-2.358,17.8675-3.4637,35.3698-3.0699,41.8883,.1223,2.0914,.2444,3.2594,.2444,3.2594l40.6202,.7554,.3244-4.9245,.57071-5.4323,1.02889,3.8922,1.31611,6.2315,35.09039-11.1482-3.3893-8.5904Z" style="fill:#407BFF;"></path><path d="M296.61309,272.3299l-12.8066-32.389-8.533-18.6438,.17151-8.3791-43.37961-.4366c-.3531,.8284-.706,1.6568-1.0456,2.4989-1.207,2.9952-.5613,3.2191-1.5156,6.2807,0,0-3.6769,10.3619-5.627,25.1375-2.358,17.8675-3.4637,35.3698-3.0699,41.8883,.1223,2.0914,.2444,3.2594,.2444,3.2594l40.6202,.7554,.3244-4.9245,.57071-5.4323,1.02889,3.8922,1.31611,6.2315,35.09039-11.1482-3.3893-8.5904Z" style="fill:#fff; opacity:.5;"></path><polygon points="262.568 281.9506 262.568 260.6042 268.02669 242.2364 264.06879 260.6042 262.568 281.9506" style="opacity:.2;"></polygon></g><circle cx="263.79939" cy="217.7772" r="2.4771" style="fill:#407BFF;"></circle><path d="M231.13209,230.2988s7.9871-.1518,13.02591-8.1975c-4.34191,4.0188-8.68391,6.7513-13.02591,8.1975Z" style="opacity:.2;"></path></g><path d="M275.445,212.918l-43.37951-.4374s.6046-13.9949-3.6429-35.3044c-.7487-3.7435-1.6412-7.7319-2.7211-11.9073-.9506-3.6429,.2168-8.4164-1.0211-12.3328,0,0,.0347-.3638,4.5993-1.6165,.0289-.0143,.0432-.0143,.072-.0287,4.593-1.267,11.4392-2.4505,20.8557-2.7961,9.8625-.36,15.4045,2.3259,20.2824,1.8812l4.4771,.5685s4.8693,12.7086,4.4146,26.3054c-.3564,10.6589-3.52749,17.6711-3.93649,35.6681Z" style="fill:#407BFF;"></path><path d="M270.48979,150.376c-.187,2.347-.8736,10.1989-16.3806,10.0838-18.9338-.144-21.338-9.9796-21.338-9.9796,3.5711-.9951-.0288,.0143,0,0,4.593-1.2671,7.8123-2.3668,17.22881-2.7124,9.86249-.36,12.60919,1.4356,20.48979,2.6082Z" style="fill:#eec1bb;"></path><g><path d="M226.35819,152.176s-2.8943,.4323-7.5417,6.1775c-4.1642,5.1479-22.9872,26.4238-22.3387,33.5959,.5795,6.4098,26.5893,27.0051,26.5893,27.0051l4.8413-5.9535-16.2695-20.9121,15.99111-19.6607-1.27181-20.2522Z" style="fill:#eec1bb;"></path><path d="M226.73319,213.8508s3.8816-5.463,5.535-5.8224c1.6531-.3594,9.20081,.575,9.3445,1.6533,.1439,1.0782-1.0063,1.2188-1.0063,1.2188l1.869,2.1597s0,.6468-.8627,.7906c0,0-.0718,1.5814-.9343,1.6534-.8627,.0718-4.2411-1.0784-4.2411-1.0784l2.8034,1.9409s.43131,.7188-1.7252,.5031c-2.15649-.2156-2.9112-1.2938-2.9112-1.2938,0,0-5.2682,4.6783-7.7124,4.6783-2.444,0-3.8248-1.2998-3.8248-1.2998l3.6661-5.1037Z" style="fill:#eec1bb;"></path><path d="M211.63889,192.0889s-2.183-1.6514-5.38-1.2315c0,0,2.9199-2.2961,6.4476,.0615l-1.0676,1.17Z" style="opacity:.3;"></path><polygon points="227.63 212.6432 225.198 215.988 226.30529 210.9403 227.63 212.6432" style="opacity:.3;"></polygon></g></g></g><g id="freepik--Question_Mark--inject-555"><g><path d="M315.31839,139.8786c-1.4325,0-2.6829-.4838-3.75139-1.4514-1.06841-.9676-1.60271-2.3205-1.60271-4.0601,0-1.5432,.5166-2.8415,1.5499-3.8948,1.0332-1.0528,2.3013-1.58,3.8042-1.58,1.4794,0,2.724,.5272,3.7338,1.58,1.0097,1.0533,1.5146,2.3516,1.5146,3.8948,0,1.7146-.5283,3.0624-1.5851,4.0417-1.05669,.9793-2.2778,1.4698-3.6633,1.4698Z" style="fill:#407BFF;"></path><path d="M298.82069,101.0275c0-2.2663,.6975-4.5625,2.0926-6.8884,1.3951-2.326,3.4305-4.2524,6.1063-5.7792,2.6758-1.5263,5.7975-2.2902,9.3653-2.2902,3.31611,0,6.2435,.6386,8.782,1.9144,2.5386,1.2764,4.4997,3.0119,5.8833,5.2067,1.3837,2.1952,2.0755,4.5804,2.0755,7.1568,0,2.0278-.3945,3.8056-1.1835,5.3319-.7891,1.5268-1.7267,2.8448-2.813,3.9542-1.0864,1.1093-3.036,2.976-5.849,5.6002-.7776,.7395-1.4008,1.3901-1.8697,1.9503-.4688,.5606-.8176,1.0735-1.0463,1.5387s-.4059,.9304-.5317,1.3956-.3144,1.2827-.566,2.4512c-.43449,2.4815-1.7953,3.7216-4.0823,3.7216-1.1893,0-2.1898-.4056-3.0017-1.2167-.8119-.8106-1.2178-2.0159-1.2178-3.6142,0-2.0039,.29731-3.7395,.8919-5.2066,.5946-1.4672,1.3836-2.7554,2.367-3.8647,.9835-1.1094,2.3099-2.4274,3.97941-3.9542,1.46369-1.336,2.52139-2.3439,3.17319-3.0238,.65181-.6799,1.2007-1.4368,1.6467-2.2723,.4459-.835,.6689-1.741,.6689-2.7196,0-1.9085-.6804-3.5188-2.0411-4.8309-1.3608-1.3116-3.1161-1.9681-5.2658-1.9681-2.5157,0-4.3682,.662-5.5574,1.986-1.1893,1.324-2.1956,3.2743-3.0189,5.8507-.77759,2.6963-2.2527,4.0437-4.4253,4.0437-1.2808,0-2.3614-.4707-3.2419-1.4135-.88039-.9423-1.3207-1.9622-1.3207-3.0596Z" style="fill:#407BFF;"></path></g></g></svg>
